G04 EAGLE Gerber RS-274X export*
G75*
%MOMM*%
%FSLAX34Y34*%
%LPD*%
%INTop Copper*%
%IPPOS*%
%AMOC8*
5,1,8,0,0,1.08239X$1,22.5*%
G01*
%ADD10R,1.524000X1.524000*%
%ADD11P,1.649562X8X22.500000*%
%ADD12R,1.288000X1.288000*%
%ADD13C,1.288000*%
%ADD14C,3.220000*%
%ADD15R,1.651000X1.651000*%
%ADD16C,1.651000*%
%ADD17C,1.120000*%
%ADD18R,0.800000X0.800000*%
%ADD19C,1.400000*%
%ADD20C,1.960000*%
%ADD21R,0.508000X0.609600*%
%ADD22C,1.778000*%
%ADD23R,0.609600X0.508000*%
%ADD24C,4.445000*%
%ADD25C,1.016000*%
%ADD26R,1.143000X1.270000*%
%ADD27C,0.254000*%
%ADD28C,0.609600*%
%ADD29C,0.508000*%

G36*
X2556Y3692D02*
X2556Y3692D01*
X2563Y3573D01*
X2576Y3535D01*
X2581Y3494D01*
X2624Y3384D01*
X2661Y3271D01*
X2683Y3236D01*
X2698Y3199D01*
X2767Y3103D01*
X2831Y3002D01*
X2861Y2974D01*
X2884Y2941D01*
X2976Y2865D01*
X3063Y2784D01*
X3098Y2764D01*
X3129Y2739D01*
X3237Y2688D01*
X3341Y2630D01*
X3381Y2620D01*
X3417Y2603D01*
X3534Y2581D01*
X3649Y2551D01*
X3709Y2547D01*
X3729Y2543D01*
X3750Y2545D01*
X3810Y2541D01*
X1011991Y2541D01*
X1012109Y2556D01*
X1012228Y2563D01*
X1012266Y2575D01*
X1012307Y2581D01*
X1012417Y2624D01*
X1012530Y2661D01*
X1012565Y2683D01*
X1012602Y2698D01*
X1012698Y2767D01*
X1012799Y2831D01*
X1012827Y2861D01*
X1012860Y2884D01*
X1012935Y2976D01*
X1013017Y3063D01*
X1013036Y3098D01*
X1013062Y3129D01*
X1013113Y3237D01*
X1013170Y3341D01*
X1013181Y3380D01*
X1013198Y3417D01*
X1013220Y3534D01*
X1013250Y3649D01*
X1013254Y3709D01*
X1013258Y3729D01*
X1013256Y3750D01*
X1013260Y3810D01*
X1013366Y406400D01*
X1013458Y758190D01*
X1013443Y758308D01*
X1013436Y758427D01*
X1013424Y758465D01*
X1013419Y758505D01*
X1013375Y758616D01*
X1013338Y758729D01*
X1013316Y758764D01*
X1013302Y758801D01*
X1013232Y758897D01*
X1013168Y758998D01*
X1013138Y759026D01*
X1013115Y759058D01*
X1013023Y759134D01*
X1012936Y759216D01*
X1012901Y759236D01*
X1012870Y759261D01*
X1012762Y759312D01*
X1012658Y759370D01*
X1012619Y759380D01*
X1012582Y759397D01*
X1012465Y759419D01*
X1012350Y759449D01*
X1012290Y759453D01*
X1012270Y759457D01*
X1012249Y759455D01*
X1012189Y759459D01*
X3810Y759459D01*
X3692Y759444D01*
X3573Y759437D01*
X3535Y759424D01*
X3494Y759419D01*
X3384Y759376D01*
X3271Y759339D01*
X3236Y759317D01*
X3199Y759302D01*
X3103Y759233D01*
X3002Y759169D01*
X2974Y759139D01*
X2941Y759116D01*
X2865Y759024D01*
X2784Y758937D01*
X2764Y758902D01*
X2739Y758871D01*
X2688Y758763D01*
X2630Y758659D01*
X2620Y758619D01*
X2603Y758583D01*
X2581Y758466D01*
X2551Y758351D01*
X2547Y758291D01*
X2543Y758271D01*
X2545Y758250D01*
X2541Y758190D01*
X2541Y3810D01*
X2556Y3692D01*
G37*
%LPC*%
G36*
X77538Y710743D02*
X77538Y710743D01*
X77628Y710859D01*
X77719Y710971D01*
X77724Y710983D01*
X77733Y710994D01*
X77791Y711128D01*
X77851Y711260D01*
X77854Y711274D01*
X77859Y711286D01*
X77882Y711430D01*
X77908Y711573D01*
X77907Y711587D01*
X77909Y711600D01*
X77895Y711746D01*
X77885Y711890D01*
X77880Y711903D01*
X77879Y711917D01*
X77830Y712054D01*
X77783Y712192D01*
X77776Y712203D01*
X77772Y712216D01*
X77690Y712337D01*
X77610Y712459D01*
X77601Y712468D01*
X77593Y712479D01*
X77484Y712576D01*
X77377Y712674D01*
X77365Y712681D01*
X77355Y712690D01*
X77224Y712756D01*
X77096Y712825D01*
X77083Y712828D01*
X77071Y712834D01*
X76929Y712866D01*
X76788Y712901D01*
X76774Y712901D01*
X76761Y712904D01*
X76616Y712899D01*
X76470Y712898D01*
X76452Y712894D01*
X76443Y712894D01*
X76427Y712889D01*
X76312Y712866D01*
X76200Y712836D01*
X70668Y714319D01*
X66619Y718368D01*
X65136Y723900D01*
X66619Y729432D01*
X70668Y733481D01*
X76200Y734964D01*
X81732Y733481D01*
X85781Y729432D01*
X87264Y723900D01*
X87234Y723788D01*
X87214Y723644D01*
X87191Y723500D01*
X87192Y723486D01*
X87190Y723473D01*
X87207Y723329D01*
X87221Y723183D01*
X87225Y723171D01*
X87227Y723157D01*
X87279Y723022D01*
X87328Y722884D01*
X87336Y722873D01*
X87341Y722860D01*
X87425Y722742D01*
X87507Y722621D01*
X87517Y722612D01*
X87525Y722601D01*
X87636Y722507D01*
X87745Y722410D01*
X87758Y722404D01*
X87768Y722396D01*
X87899Y722332D01*
X88029Y722266D01*
X88042Y722263D01*
X88054Y722257D01*
X88197Y722228D01*
X88339Y722196D01*
X88352Y722197D01*
X88366Y722194D01*
X88511Y722201D01*
X88657Y722206D01*
X88670Y722210D01*
X88683Y722210D01*
X88822Y722254D01*
X88962Y722294D01*
X88974Y722301D01*
X88987Y722305D01*
X89111Y722382D01*
X89236Y722456D01*
X89250Y722468D01*
X89257Y722472D01*
X89269Y722485D01*
X89357Y722562D01*
X102126Y735331D01*
X639925Y735331D01*
X640023Y735343D01*
X640122Y735346D01*
X640180Y735363D01*
X640241Y735371D01*
X640333Y735407D01*
X640428Y735435D01*
X640480Y735465D01*
X640536Y735488D01*
X640616Y735546D01*
X640702Y735596D01*
X640777Y735662D01*
X640794Y735674D01*
X640801Y735684D01*
X640823Y735703D01*
X641455Y736335D01*
X643323Y737109D01*
X688279Y737109D01*
X690147Y736335D01*
X690779Y735703D01*
X690858Y735642D01*
X690930Y735574D01*
X690983Y735545D01*
X691031Y735508D01*
X691122Y735468D01*
X691208Y735420D01*
X691267Y735405D01*
X691322Y735381D01*
X691420Y735366D01*
X691516Y735341D01*
X691616Y735335D01*
X691637Y735331D01*
X691649Y735333D01*
X691677Y735331D01*
X938531Y735331D01*
X938531Y685800D01*
X938546Y685682D01*
X938553Y685563D01*
X938566Y685525D01*
X938571Y685484D01*
X938614Y685374D01*
X938651Y685261D01*
X938673Y685226D01*
X938688Y685189D01*
X938758Y685093D01*
X938821Y684992D01*
X938851Y684964D01*
X938874Y684931D01*
X938966Y684856D01*
X939053Y684774D01*
X939088Y684754D01*
X939119Y684729D01*
X939227Y684678D01*
X939331Y684620D01*
X939371Y684610D01*
X939407Y684593D01*
X939524Y684571D01*
X939639Y684541D01*
X939700Y684537D01*
X939720Y684533D01*
X939740Y684535D01*
X939800Y684531D01*
X963931Y684531D01*
X963931Y483126D01*
X938903Y458098D01*
X938842Y458019D01*
X938774Y457947D01*
X938745Y457894D01*
X938708Y457846D01*
X938668Y457755D01*
X938620Y457669D01*
X938605Y457610D01*
X938581Y457554D01*
X938566Y457456D01*
X938541Y457361D01*
X938535Y457261D01*
X938531Y457240D01*
X938533Y457228D01*
X938531Y457200D01*
X938531Y137160D01*
X938546Y137042D01*
X938553Y136923D01*
X938566Y136885D01*
X938571Y136844D01*
X938614Y136734D01*
X938651Y136621D01*
X938673Y136586D01*
X938688Y136549D01*
X938758Y136453D01*
X938821Y136352D01*
X938851Y136324D01*
X938874Y136291D01*
X938966Y136215D01*
X939053Y136134D01*
X939088Y136114D01*
X939119Y136089D01*
X939227Y136038D01*
X939331Y135980D01*
X939371Y135970D01*
X939407Y135953D01*
X939524Y135931D01*
X939639Y135901D01*
X939700Y135897D01*
X939720Y135893D01*
X939740Y135895D01*
X939800Y135891D01*
X942039Y135891D01*
X942686Y135718D01*
X943265Y135383D01*
X943738Y134910D01*
X944073Y134331D01*
X944246Y133684D01*
X944246Y129539D01*
X939800Y129539D01*
X939682Y129524D01*
X939563Y129517D01*
X939525Y129504D01*
X939484Y129499D01*
X939374Y129455D01*
X939261Y129419D01*
X939226Y129397D01*
X939189Y129382D01*
X939093Y129312D01*
X938992Y129249D01*
X938964Y129219D01*
X938931Y129195D01*
X938856Y129104D01*
X938774Y129017D01*
X938754Y128982D01*
X938729Y128950D01*
X938678Y128843D01*
X938620Y128739D01*
X938610Y128699D01*
X938593Y128663D01*
X938571Y128546D01*
X938541Y128431D01*
X938537Y128370D01*
X938533Y128350D01*
X938535Y128330D01*
X938531Y128270D01*
X938531Y125730D01*
X938546Y125612D01*
X938553Y125493D01*
X938566Y125455D01*
X938571Y125415D01*
X938614Y125304D01*
X938651Y125191D01*
X938673Y125156D01*
X938688Y125119D01*
X938758Y125023D01*
X938821Y124922D01*
X938851Y124894D01*
X938874Y124861D01*
X938966Y124786D01*
X939053Y124704D01*
X939088Y124684D01*
X939119Y124659D01*
X939227Y124608D01*
X939331Y124550D01*
X939371Y124540D01*
X939407Y124523D01*
X939524Y124501D01*
X939639Y124471D01*
X939700Y124467D01*
X939720Y124463D01*
X939740Y124465D01*
X939800Y124461D01*
X944246Y124461D01*
X944246Y120316D01*
X944073Y119669D01*
X943738Y119090D01*
X943265Y118617D01*
X942686Y118282D01*
X942039Y118109D01*
X939800Y118109D01*
X939682Y118094D01*
X939563Y118087D01*
X939525Y118074D01*
X939484Y118069D01*
X939374Y118026D01*
X939261Y117989D01*
X939226Y117967D01*
X939189Y117952D01*
X939093Y117883D01*
X938992Y117819D01*
X938964Y117789D01*
X938931Y117766D01*
X938856Y117674D01*
X938774Y117587D01*
X938754Y117552D01*
X938729Y117521D01*
X938678Y117413D01*
X938620Y117309D01*
X938610Y117269D01*
X938593Y117233D01*
X938571Y117116D01*
X938541Y117001D01*
X938537Y116941D01*
X938533Y116921D01*
X938535Y116900D01*
X938531Y116840D01*
X938531Y76726D01*
X938462Y76657D01*
X938372Y76541D01*
X938281Y76429D01*
X938276Y76417D01*
X938267Y76406D01*
X938209Y76272D01*
X938149Y76140D01*
X938146Y76126D01*
X938141Y76114D01*
X938118Y75970D01*
X938092Y75827D01*
X938093Y75813D01*
X938091Y75800D01*
X938105Y75654D01*
X938115Y75510D01*
X938120Y75497D01*
X938121Y75483D01*
X938170Y75346D01*
X938217Y75208D01*
X938224Y75197D01*
X938228Y75184D01*
X938310Y75063D01*
X938390Y74941D01*
X938399Y74932D01*
X938407Y74921D01*
X938516Y74824D01*
X938623Y74726D01*
X938635Y74719D01*
X938645Y74710D01*
X938776Y74644D01*
X938904Y74575D01*
X938917Y74572D01*
X938929Y74566D01*
X939071Y74534D01*
X939212Y74499D01*
X939226Y74499D01*
X939239Y74496D01*
X939384Y74501D01*
X939530Y74502D01*
X939548Y74506D01*
X939557Y74506D01*
X939573Y74511D01*
X939688Y74534D01*
X939800Y74564D01*
X945332Y73081D01*
X949381Y69032D01*
X950864Y63500D01*
X949381Y57968D01*
X945332Y53919D01*
X939800Y52436D01*
X934268Y53919D01*
X930219Y57968D01*
X928736Y63500D01*
X928766Y63612D01*
X928786Y63756D01*
X928809Y63900D01*
X928808Y63914D01*
X928810Y63927D01*
X928793Y64071D01*
X928779Y64217D01*
X928775Y64229D01*
X928773Y64243D01*
X928721Y64378D01*
X928672Y64516D01*
X928664Y64527D01*
X928659Y64540D01*
X928575Y64658D01*
X928493Y64779D01*
X928483Y64788D01*
X928475Y64799D01*
X928364Y64893D01*
X928255Y64990D01*
X928242Y64996D01*
X928232Y65004D01*
X928101Y65068D01*
X927971Y65134D01*
X927958Y65137D01*
X927946Y65143D01*
X927803Y65172D01*
X927661Y65204D01*
X927648Y65203D01*
X927634Y65206D01*
X927489Y65199D01*
X927343Y65194D01*
X927330Y65190D01*
X927317Y65190D01*
X927178Y65146D01*
X927038Y65106D01*
X927026Y65099D01*
X927013Y65095D01*
X926889Y65018D01*
X926764Y64944D01*
X926750Y64932D01*
X926743Y64928D01*
X926731Y64915D01*
X926643Y64838D01*
X888474Y26669D01*
X673608Y26669D01*
X673490Y26654D01*
X673371Y26647D01*
X673333Y26634D01*
X673292Y26629D01*
X673182Y26586D01*
X673069Y26549D01*
X673034Y26527D01*
X672997Y26512D01*
X672901Y26443D01*
X672800Y26379D01*
X672772Y26349D01*
X672739Y26326D01*
X672663Y26234D01*
X672582Y26147D01*
X672562Y26112D01*
X672537Y26081D01*
X672486Y25973D01*
X672428Y25869D01*
X672418Y25829D01*
X672401Y25793D01*
X672379Y25676D01*
X672349Y25561D01*
X672345Y25501D01*
X672341Y25481D01*
X672342Y25471D01*
X672341Y25468D01*
X672342Y25454D01*
X672339Y25400D01*
X672339Y24288D01*
X671488Y22234D01*
X669916Y20662D01*
X667862Y19811D01*
X665638Y19811D01*
X663584Y20662D01*
X662012Y22234D01*
X661161Y24288D01*
X661161Y25400D01*
X661146Y25518D01*
X661139Y25637D01*
X661126Y25675D01*
X661121Y25716D01*
X661078Y25826D01*
X661041Y25939D01*
X661019Y25974D01*
X661004Y26011D01*
X660935Y26107D01*
X660871Y26208D01*
X660841Y26236D01*
X660818Y26269D01*
X660726Y26345D01*
X660639Y26426D01*
X660604Y26446D01*
X660573Y26471D01*
X660465Y26522D01*
X660361Y26580D01*
X660321Y26590D01*
X660285Y26607D01*
X660168Y26629D01*
X660053Y26659D01*
X659993Y26663D01*
X659973Y26667D01*
X659952Y26665D01*
X659892Y26669D01*
X102126Y26669D01*
X76657Y52138D01*
X76584Y52195D01*
X76518Y52258D01*
X76459Y52291D01*
X76406Y52333D01*
X76321Y52369D01*
X76241Y52415D01*
X76130Y52452D01*
X76114Y52459D01*
X76106Y52460D01*
X76088Y52466D01*
X70668Y53919D01*
X66619Y57968D01*
X65166Y63388D01*
X65131Y63474D01*
X65106Y63562D01*
X65072Y63620D01*
X65046Y63683D01*
X64991Y63757D01*
X64944Y63836D01*
X64867Y63924D01*
X64857Y63938D01*
X64850Y63943D01*
X64838Y63957D01*
X26669Y102126D01*
X26669Y659874D01*
X77538Y710743D01*
G37*
%LPD*%
%LPC*%
G36*
X980439Y40639D02*
X980439Y40639D01*
X980439Y62736D01*
X982055Y62554D01*
X984767Y61935D01*
X987392Y61017D01*
X989899Y59810D01*
X992254Y58330D01*
X994429Y56595D01*
X996395Y54629D01*
X998130Y52454D01*
X999610Y50099D01*
X1000817Y47592D01*
X1001735Y44967D01*
X1002354Y42255D01*
X1002536Y40639D01*
X980439Y40639D01*
G37*
%LPD*%
%LPC*%
G36*
X40639Y726439D02*
X40639Y726439D01*
X40639Y748536D01*
X42255Y748354D01*
X44967Y747735D01*
X47592Y746817D01*
X50099Y745610D01*
X52454Y744130D01*
X54629Y742395D01*
X56595Y740429D01*
X58330Y738254D01*
X59810Y735899D01*
X61017Y733392D01*
X61935Y730767D01*
X62554Y728055D01*
X62736Y726439D01*
X40639Y726439D01*
G37*
%LPD*%
%LPC*%
G36*
X40639Y40639D02*
X40639Y40639D01*
X40639Y62736D01*
X42255Y62554D01*
X44967Y61935D01*
X47592Y61017D01*
X50099Y59810D01*
X52454Y58330D01*
X54629Y56595D01*
X56595Y54629D01*
X58330Y52454D01*
X59810Y50099D01*
X61017Y47592D01*
X61935Y44967D01*
X62554Y42255D01*
X62736Y40639D01*
X40639Y40639D01*
G37*
%LPD*%
%LPC*%
G36*
X980439Y726439D02*
X980439Y726439D01*
X980439Y748536D01*
X982055Y748354D01*
X984767Y747735D01*
X987392Y746817D01*
X989899Y745610D01*
X992254Y744130D01*
X994429Y742395D01*
X996395Y740429D01*
X998130Y738254D01*
X999610Y735899D01*
X1000817Y733392D01*
X1001735Y730767D01*
X1002354Y728055D01*
X1002536Y726439D01*
X980439Y726439D01*
G37*
%LPD*%
%LPC*%
G36*
X40639Y721361D02*
X40639Y721361D01*
X62736Y721361D01*
X62554Y719745D01*
X61935Y717033D01*
X61017Y714408D01*
X59810Y711901D01*
X58330Y709546D01*
X56595Y707371D01*
X54629Y705405D01*
X52454Y703670D01*
X50099Y702190D01*
X47592Y700983D01*
X44967Y700065D01*
X42255Y699446D01*
X40639Y699264D01*
X40639Y721361D01*
G37*
%LPD*%
%LPC*%
G36*
X953264Y40639D02*
X953264Y40639D01*
X953446Y42255D01*
X954065Y44967D01*
X954983Y47592D01*
X956190Y50099D01*
X957670Y52454D01*
X959405Y54629D01*
X961371Y56595D01*
X963546Y58330D01*
X965901Y59810D01*
X968408Y61017D01*
X971033Y61935D01*
X973745Y62554D01*
X975361Y62736D01*
X975361Y40639D01*
X953264Y40639D01*
G37*
%LPD*%
%LPC*%
G36*
X40639Y35561D02*
X40639Y35561D01*
X62736Y35561D01*
X62554Y33945D01*
X61935Y31233D01*
X61017Y28608D01*
X59810Y26101D01*
X58330Y23746D01*
X56595Y21571D01*
X54629Y19605D01*
X52454Y17870D01*
X50099Y16390D01*
X47592Y15183D01*
X44967Y14265D01*
X42255Y13646D01*
X40639Y13464D01*
X40639Y35561D01*
G37*
%LPD*%
%LPC*%
G36*
X980439Y721361D02*
X980439Y721361D01*
X1002536Y721361D01*
X1002354Y719745D01*
X1001735Y717033D01*
X1000817Y714408D01*
X999610Y711901D01*
X998130Y709546D01*
X996395Y707371D01*
X994429Y705405D01*
X992254Y703670D01*
X989899Y702190D01*
X987392Y700983D01*
X984767Y700065D01*
X982055Y699446D01*
X980439Y699264D01*
X980439Y721361D01*
G37*
%LPD*%
%LPC*%
G36*
X980439Y35561D02*
X980439Y35561D01*
X1002536Y35561D01*
X1002354Y33945D01*
X1001735Y31233D01*
X1000817Y28608D01*
X999610Y26101D01*
X998130Y23746D01*
X996395Y21571D01*
X994429Y19605D01*
X992254Y17870D01*
X989899Y16390D01*
X987392Y15183D01*
X984767Y14265D01*
X982055Y13646D01*
X980439Y13464D01*
X980439Y35561D01*
G37*
%LPD*%
%LPC*%
G36*
X13464Y726439D02*
X13464Y726439D01*
X13646Y728055D01*
X14265Y730767D01*
X15183Y733392D01*
X16390Y735899D01*
X17870Y738254D01*
X19605Y740429D01*
X21571Y742395D01*
X23746Y744130D01*
X26101Y745610D01*
X28608Y746817D01*
X31233Y747735D01*
X33945Y748354D01*
X35561Y748536D01*
X35561Y726439D01*
X13464Y726439D01*
G37*
%LPD*%
%LPC*%
G36*
X13464Y40639D02*
X13464Y40639D01*
X13646Y42255D01*
X14265Y44967D01*
X15183Y47592D01*
X16390Y50099D01*
X17870Y52454D01*
X19605Y54629D01*
X21571Y56595D01*
X23746Y58330D01*
X26101Y59810D01*
X28608Y61017D01*
X31233Y61935D01*
X33945Y62554D01*
X35561Y62736D01*
X35561Y40639D01*
X13464Y40639D01*
G37*
%LPD*%
%LPC*%
G36*
X953264Y726439D02*
X953264Y726439D01*
X953446Y728055D01*
X954065Y730767D01*
X954983Y733392D01*
X956190Y735899D01*
X957670Y738254D01*
X959405Y740429D01*
X961371Y742395D01*
X963546Y744130D01*
X965901Y745610D01*
X968408Y746817D01*
X971033Y747735D01*
X973745Y748354D01*
X975361Y748536D01*
X975361Y726439D01*
X953264Y726439D01*
G37*
%LPD*%
%LPC*%
G36*
X33945Y13646D02*
X33945Y13646D01*
X31233Y14265D01*
X28608Y15183D01*
X26101Y16390D01*
X23746Y17870D01*
X21571Y19605D01*
X19605Y21571D01*
X17870Y23746D01*
X16390Y26101D01*
X15183Y28608D01*
X14265Y31233D01*
X13646Y33945D01*
X13464Y35561D01*
X35561Y35561D01*
X35561Y13464D01*
X33945Y13646D01*
G37*
%LPD*%
%LPC*%
G36*
X973745Y699446D02*
X973745Y699446D01*
X971033Y700065D01*
X968408Y700983D01*
X965901Y702190D01*
X963546Y703670D01*
X961371Y705405D01*
X959405Y707371D01*
X957670Y709546D01*
X956190Y711901D01*
X954983Y714408D01*
X954065Y717033D01*
X953446Y719745D01*
X953264Y721361D01*
X975361Y721361D01*
X975361Y699264D01*
X973745Y699446D01*
G37*
%LPD*%
%LPC*%
G36*
X33945Y699446D02*
X33945Y699446D01*
X31233Y700065D01*
X28608Y700983D01*
X26101Y702190D01*
X23746Y703670D01*
X21571Y705405D01*
X19605Y707371D01*
X17870Y709546D01*
X16390Y711901D01*
X15183Y714408D01*
X14265Y717033D01*
X13646Y719745D01*
X13464Y721361D01*
X35561Y721361D01*
X35561Y699264D01*
X33945Y699446D01*
G37*
%LPD*%
%LPC*%
G36*
X973745Y13646D02*
X973745Y13646D01*
X971033Y14265D01*
X968408Y15183D01*
X965901Y16390D01*
X963546Y17870D01*
X961371Y19605D01*
X959405Y21571D01*
X957670Y23746D01*
X956190Y26101D01*
X954983Y28608D01*
X954065Y31233D01*
X953446Y33945D01*
X953264Y35561D01*
X975361Y35561D01*
X975361Y13464D01*
X973745Y13646D01*
G37*
%LPD*%
%LPC*%
G36*
X977899Y723899D02*
X977899Y723899D01*
X977899Y723901D01*
X977901Y723901D01*
X977901Y723899D01*
X977899Y723899D01*
G37*
%LPD*%
%LPC*%
G36*
X38099Y38099D02*
X38099Y38099D01*
X38099Y38101D01*
X38101Y38101D01*
X38101Y38099D01*
X38099Y38099D01*
G37*
%LPD*%
%LPC*%
G36*
X977899Y38099D02*
X977899Y38099D01*
X977899Y38101D01*
X977901Y38101D01*
X977901Y38099D01*
X977899Y38099D01*
G37*
%LPD*%
%LPC*%
G36*
X38099Y723899D02*
X38099Y723899D01*
X38099Y723901D01*
X38101Y723901D01*
X38101Y723899D01*
X38099Y723899D01*
G37*
%LPD*%
D10*
X84500Y276600D03*
D11*
X84500Y302000D03*
X109900Y276600D03*
X109900Y302000D03*
X135300Y276600D03*
X135300Y302000D03*
X160700Y276600D03*
X160700Y302000D03*
X186100Y276600D03*
X186100Y302000D03*
X211500Y276600D03*
X211500Y302000D03*
X236900Y276600D03*
X236900Y302000D03*
X262300Y276600D03*
X262300Y302000D03*
X287700Y276600D03*
X287700Y302000D03*
X313100Y276600D03*
X313100Y302000D03*
X338500Y276600D03*
X338500Y302000D03*
X363900Y276600D03*
X363900Y302000D03*
X389300Y276600D03*
X389300Y302000D03*
X414700Y276600D03*
X414700Y302000D03*
X440100Y276600D03*
X440100Y302000D03*
X465500Y276600D03*
X465500Y302000D03*
X490900Y276600D03*
X490900Y302000D03*
X516300Y276600D03*
X516300Y302000D03*
D10*
X84500Y530600D03*
D11*
X84500Y556000D03*
X109900Y530600D03*
X109900Y556000D03*
X135300Y530600D03*
X135300Y556000D03*
X160700Y530600D03*
X160700Y556000D03*
X186100Y530600D03*
X186100Y556000D03*
X211500Y530600D03*
X211500Y556000D03*
X236900Y530600D03*
X236900Y556000D03*
X262300Y530600D03*
X262300Y556000D03*
X287700Y530600D03*
X287700Y556000D03*
X313100Y530600D03*
X313100Y556000D03*
X338500Y530600D03*
X338500Y556000D03*
X363900Y530600D03*
X363900Y556000D03*
X389300Y530600D03*
X389300Y556000D03*
X414700Y530600D03*
X414700Y556000D03*
X440100Y530600D03*
X440100Y556000D03*
X465500Y530600D03*
X465500Y556000D03*
X490900Y530600D03*
X490900Y556000D03*
X516300Y530600D03*
X516300Y556000D03*
D12*
X152400Y177800D03*
D13*
X177400Y177800D03*
X197400Y177800D03*
X222400Y177800D03*
D14*
X121700Y150700D03*
X253100Y150700D03*
D15*
X596900Y177800D03*
D16*
X596900Y152400D03*
X596900Y127000D03*
D17*
X101600Y680200D03*
X101600Y615200D03*
D18*
X652900Y342900D03*
X667900Y342900D03*
X652900Y254000D03*
X667900Y254000D03*
D19*
X457600Y63500D03*
X482600Y63500D03*
X507600Y63500D03*
D20*
X367300Y660000D03*
X367300Y610000D03*
X242300Y610000D03*
X242300Y660000D03*
D21*
X228600Y680212D03*
X228600Y691388D03*
D22*
X726440Y698500D03*
X701040Y698500D03*
X675640Y698500D03*
X650240Y698500D03*
D23*
X731012Y520700D03*
X742188Y520700D03*
X832612Y469900D03*
X843788Y469900D03*
D24*
X38100Y38100D03*
X38100Y723900D03*
X977900Y723900D03*
X977900Y38100D03*
D25*
X76200Y63500D03*
X76200Y723900D03*
X939800Y63500D03*
D26*
X918210Y127000D03*
X935990Y127000D03*
D27*
X622300Y127000D02*
X596900Y127000D01*
D28*
X622300Y127000D03*
X222250Y158750D03*
D27*
X768350Y127000D02*
X918210Y127000D01*
D28*
X666750Y25400D03*
X673100Y723900D03*
X368300Y685800D03*
X120650Y679450D03*
D27*
X654050Y329050D02*
X667900Y342900D01*
X654050Y329050D02*
X654050Y317500D01*
D28*
X654050Y317500D03*
D27*
X667900Y254000D02*
X673675Y248225D01*
X679450Y254000D01*
D28*
X679450Y254000D03*
D29*
X892810Y152400D02*
X918210Y127000D01*
X892810Y152400D02*
X889000Y152400D01*
D28*
X889000Y152400D03*
X622300Y152400D03*
X152400Y158750D03*
D29*
X363900Y302000D02*
X236900Y429000D01*
X236900Y530600D01*
X384039Y314700D02*
X394561Y314700D01*
X402000Y307261D01*
X402000Y296739D02*
X409439Y289300D01*
X470761Y289300D02*
X478200Y281861D01*
X402000Y296739D02*
X402000Y307261D01*
X371339Y302000D02*
X363900Y302000D01*
X478200Y271100D02*
X596900Y152400D01*
X384039Y314700D02*
X371339Y302000D01*
X409439Y289300D02*
X470761Y289300D01*
X478200Y281861D02*
X478200Y271100D01*
X343761Y289300D02*
X333239Y289300D01*
X325800Y296739D01*
X325800Y307261D02*
X318361Y314700D01*
X307839Y314700D01*
X300400Y307261D01*
X300400Y296739D02*
X292961Y289300D01*
X257039Y289300D02*
X249600Y281861D01*
X249600Y271339D02*
X242161Y263900D01*
X238500Y263900D01*
X152400Y177800D01*
X325800Y296739D02*
X325800Y307261D01*
X300400Y307261D02*
X300400Y296739D01*
X249600Y281861D02*
X249600Y271339D01*
X356461Y302000D02*
X363900Y302000D01*
X356461Y302000D02*
X343761Y289300D01*
X292961Y289300D02*
X257039Y289300D01*
D27*
X121700Y121700D02*
X120650Y120650D01*
D28*
X120650Y120650D03*
X254000Y120650D03*
X76200Y38100D03*
D27*
X935990Y127000D02*
X939800Y123190D01*
D28*
X971550Y685800D03*
X76200Y704850D03*
D29*
X120650Y120650D02*
X120650Y82550D01*
X76200Y38100D01*
X120650Y120650D02*
X120650Y149650D01*
X121700Y150700D01*
X148955Y150700D01*
X149033Y150622D01*
X121700Y150700D02*
X121700Y270439D01*
X122600Y271339D01*
X90920Y690130D02*
X76200Y704850D01*
X90920Y690130D02*
X90920Y675776D01*
X122600Y644096D02*
X122600Y271339D01*
X122600Y644096D02*
X90920Y675776D01*
X149033Y150622D02*
X253022Y150622D01*
X253100Y150700D01*
X253100Y121550D01*
X254000Y120650D01*
X101600Y565661D02*
X101600Y615200D01*
X101600Y565661D02*
X97200Y561261D01*
X97200Y543300D02*
X84500Y530600D01*
X97200Y543300D02*
X97200Y561261D01*
X582600Y342900D02*
X652900Y342900D01*
X582600Y342900D02*
X516300Y276600D01*
X513500Y254000D02*
X652900Y254000D01*
X513500Y254000D02*
X490900Y276600D01*
D27*
X507600Y63500D02*
X508000Y63100D01*
X508000Y44450D01*
D28*
X508000Y44450D03*
D29*
X438620Y151080D02*
X313100Y276600D01*
X438620Y151080D02*
X439882Y151080D01*
X482600Y108362D01*
X482600Y63500D01*
D28*
X457200Y44450D03*
D29*
X242300Y660000D02*
X242300Y666512D01*
X228600Y680212D01*
D27*
X704850Y609600D02*
X704850Y558800D01*
X731012Y532638D01*
X731012Y520700D01*
D28*
X704850Y609600D03*
X781050Y584200D03*
D27*
X781050Y482600D02*
X832612Y482600D01*
X781050Y482600D02*
X781050Y584200D01*
X832612Y482600D02*
X832612Y469900D01*
X650240Y721360D02*
X647700Y723900D01*
X650240Y721360D02*
X650240Y698500D01*
D28*
X647700Y723900D03*
D27*
X247650Y717550D02*
X247650Y710438D01*
X228600Y691388D01*
D28*
X247650Y717550D03*
D29*
X726440Y698500D02*
X726440Y639644D01*
X840740Y472948D02*
X843788Y469900D01*
X840740Y472948D02*
X840740Y536005D01*
X784417Y592328D01*
X773756Y592328D01*
X726440Y639644D01*
X503600Y561261D02*
X496161Y568700D01*
X485639Y568700D01*
X478200Y561261D01*
X452800Y561261D02*
X445361Y568700D01*
X434839Y568700D01*
X427400Y561261D01*
X402000Y561261D02*
X394561Y568700D01*
X384039Y568700D01*
X376600Y561261D01*
X351200Y561261D02*
X343761Y568700D01*
X333239Y568700D01*
X325800Y561261D01*
X300400Y561261D02*
X292961Y568700D01*
X282439Y568700D01*
X275000Y561261D01*
X249600Y561261D02*
X242161Y568700D01*
X231639Y568700D01*
X224200Y561261D01*
X193539Y530600D02*
X186100Y530600D01*
X193539Y530600D02*
X206239Y543300D01*
X503600Y550739D02*
X511039Y543300D01*
X503600Y550739D02*
X503600Y561261D01*
X478200Y561261D02*
X478200Y550739D01*
X470761Y543300D01*
X460239Y543300D01*
X452800Y550739D01*
X452800Y561261D01*
X427400Y561261D02*
X427400Y550739D01*
X419961Y543300D01*
X409439Y543300D01*
X402000Y550739D01*
X402000Y561261D01*
X376600Y561261D02*
X376600Y550739D01*
X369161Y543300D01*
X358639Y543300D01*
X351200Y550739D01*
X351200Y561261D01*
X325800Y561261D02*
X325800Y550739D01*
X318361Y543300D01*
X307839Y543300D01*
X300400Y550739D01*
X300400Y561261D01*
X275000Y561261D02*
X275000Y550739D01*
X267561Y543300D01*
X257039Y543300D01*
X249600Y550739D01*
X249600Y561261D01*
X224200Y561261D02*
X224200Y550739D01*
X216761Y543300D01*
X206239Y543300D01*
X644333Y732028D02*
X687269Y732028D01*
X644333Y732028D02*
X636270Y723965D01*
X521561Y543300D02*
X511039Y543300D01*
X720797Y698500D02*
X726440Y698500D01*
X636270Y658009D02*
X521561Y543300D01*
X687269Y732028D02*
X720797Y698500D01*
X636270Y723965D02*
X636270Y658009D01*
X739140Y523748D02*
X742188Y520700D01*
X701040Y624905D02*
X701040Y698500D01*
X739140Y586805D02*
X739140Y523748D01*
X739140Y586805D02*
X701040Y624905D01*
X529000Y525339D02*
X521561Y517900D01*
X511039Y517900D01*
X503600Y525339D01*
X503600Y535861D02*
X496161Y543300D01*
X485639Y543300D01*
X478200Y535861D01*
X478200Y525339D02*
X470761Y517900D01*
X460239Y517900D01*
X452800Y525339D01*
X452800Y535861D02*
X445361Y543300D01*
X434839Y543300D01*
X427400Y535861D01*
X427400Y525339D02*
X419961Y517900D01*
X409439Y517900D01*
X402000Y525339D01*
X402000Y535861D02*
X394561Y543300D01*
X384039Y543300D01*
X376600Y535861D01*
X376600Y525339D02*
X369161Y517900D01*
X358639Y517900D01*
X351200Y525339D01*
X351200Y535861D02*
X343761Y543300D01*
X333239Y543300D01*
X325800Y535861D01*
X325800Y525339D02*
X318361Y517900D01*
X307839Y517900D01*
X300400Y525339D01*
X300400Y535861D02*
X292961Y543300D01*
X282439Y543300D01*
X275000Y535861D01*
X275000Y525339D02*
X267561Y517900D01*
X257039Y517900D01*
X249600Y525339D01*
X249600Y535861D02*
X242161Y543300D01*
X231639Y543300D01*
X503600Y535861D02*
X503600Y525339D01*
X478200Y525339D02*
X478200Y535861D01*
X452800Y535861D02*
X452800Y525339D01*
X427400Y525339D02*
X427400Y535861D01*
X402000Y535861D02*
X402000Y525339D01*
X376600Y525339D02*
X376600Y535861D01*
X351200Y535861D02*
X351200Y525339D01*
X325800Y525339D02*
X325800Y535861D01*
X300400Y535861D02*
X300400Y525339D01*
X275000Y525339D02*
X275000Y535861D01*
X249600Y535861D02*
X249600Y525339D01*
X529000Y525339D02*
X529000Y526460D01*
X218939Y530600D02*
X211500Y530600D01*
X529000Y526460D02*
X701040Y698500D01*
X231639Y543300D02*
X218939Y530600D01*
M02*
