G04 EAGLE Gerber RS-274X export*
G75*
%MOMM*%
%FSLAX34Y34*%
%LPD*%
%IN*%
%IPPOS*%
%AMOC8*
5,1,8,0,0,1.08239X$1,22.5*%
G01*
%ADD10C,0.254000*%


D10*
X0Y0D02*
X1015800Y0D01*
X1016000Y762000D01*
X0Y762000D01*
X0Y0D01*
X445100Y133009D02*
X445023Y132030D01*
X444869Y131060D01*
X444640Y130104D01*
X444336Y129170D01*
X443961Y128263D01*
X443515Y127388D01*
X443001Y126550D01*
X442424Y125755D01*
X441786Y125008D01*
X441092Y124314D01*
X440345Y123676D01*
X439550Y123099D01*
X438712Y122585D01*
X437837Y122139D01*
X436930Y121764D01*
X435996Y121460D01*
X435041Y121231D01*
X434070Y121077D01*
X433091Y121000D01*
X432109Y121000D01*
X431130Y121077D01*
X430160Y121231D01*
X429204Y121460D01*
X428270Y121764D01*
X427363Y122139D01*
X426488Y122585D01*
X425650Y123099D01*
X424855Y123676D01*
X424108Y124314D01*
X423414Y125008D01*
X422776Y125755D01*
X422199Y126550D01*
X421685Y127388D01*
X421239Y128263D01*
X420864Y129170D01*
X420560Y130104D01*
X420331Y131060D01*
X420177Y132030D01*
X420100Y133009D01*
X420100Y133991D01*
X420177Y134970D01*
X420331Y135941D01*
X420560Y136896D01*
X420864Y137830D01*
X421239Y138737D01*
X421685Y139612D01*
X422199Y140450D01*
X422776Y141245D01*
X423414Y141992D01*
X424108Y142686D01*
X424855Y143324D01*
X425650Y143901D01*
X426488Y144415D01*
X427363Y144861D01*
X428270Y145236D01*
X429204Y145540D01*
X430160Y145769D01*
X431130Y145923D01*
X432109Y146000D01*
X433091Y146000D01*
X434070Y145923D01*
X435041Y145769D01*
X435996Y145540D01*
X436930Y145236D01*
X437837Y144861D01*
X438712Y144415D01*
X439550Y143901D01*
X440345Y143324D01*
X441092Y142686D01*
X441786Y141992D01*
X442424Y141245D01*
X443001Y140450D01*
X443515Y139612D01*
X443961Y138737D01*
X444336Y137830D01*
X444640Y136896D01*
X444869Y135941D01*
X445023Y134970D01*
X445100Y133991D01*
X445100Y133009D01*
X545100Y133009D02*
X545023Y132030D01*
X544869Y131060D01*
X544640Y130104D01*
X544336Y129170D01*
X543961Y128263D01*
X543515Y127388D01*
X543001Y126550D01*
X542424Y125755D01*
X541786Y125008D01*
X541092Y124314D01*
X540345Y123676D01*
X539550Y123099D01*
X538712Y122585D01*
X537837Y122139D01*
X536930Y121764D01*
X535996Y121460D01*
X535041Y121231D01*
X534070Y121077D01*
X533091Y121000D01*
X532109Y121000D01*
X531130Y121077D01*
X530160Y121231D01*
X529204Y121460D01*
X528270Y121764D01*
X527363Y122139D01*
X526488Y122585D01*
X525650Y123099D01*
X524855Y123676D01*
X524108Y124314D01*
X523414Y125008D01*
X522776Y125755D01*
X522199Y126550D01*
X521685Y127388D01*
X521239Y128263D01*
X520864Y129170D01*
X520560Y130104D01*
X520331Y131060D01*
X520177Y132030D01*
X520100Y133009D01*
X520100Y133991D01*
X520177Y134970D01*
X520331Y135941D01*
X520560Y136896D01*
X520864Y137830D01*
X521239Y138737D01*
X521685Y139612D01*
X522199Y140450D01*
X522776Y141245D01*
X523414Y141992D01*
X524108Y142686D01*
X524855Y143324D01*
X525650Y143901D01*
X526488Y144415D01*
X527363Y144861D01*
X528270Y145236D01*
X529204Y145540D01*
X530160Y145769D01*
X531130Y145923D01*
X532109Y146000D01*
X533091Y146000D01*
X534070Y145923D01*
X535041Y145769D01*
X535996Y145540D01*
X536930Y145236D01*
X537837Y144861D01*
X538712Y144415D01*
X539550Y143901D01*
X540345Y143324D01*
X541092Y142686D01*
X541786Y141992D01*
X542424Y141245D01*
X543001Y140450D01*
X543515Y139612D01*
X543961Y138737D01*
X544336Y137830D01*
X544640Y136896D01*
X544869Y135941D01*
X545023Y134970D01*
X545100Y133991D01*
X545100Y133009D01*
X477360Y469463D02*
X477284Y468594D01*
X477132Y467734D01*
X476906Y466890D01*
X476608Y466070D01*
X476239Y465278D01*
X475802Y464522D01*
X475301Y463807D01*
X474740Y463138D01*
X474122Y462520D01*
X473453Y461959D01*
X472738Y461458D01*
X471982Y461021D01*
X471190Y460652D01*
X470370Y460354D01*
X469526Y460128D01*
X468667Y459976D01*
X467797Y459900D01*
X466923Y459900D01*
X466054Y459976D01*
X465194Y460128D01*
X464350Y460354D01*
X463530Y460652D01*
X462738Y461021D01*
X461982Y461458D01*
X461267Y461959D01*
X460598Y462520D01*
X459980Y463138D01*
X459419Y463807D01*
X458918Y464522D01*
X458481Y465278D01*
X458112Y466070D01*
X457814Y466890D01*
X457588Y467734D01*
X457436Y468594D01*
X457360Y469463D01*
X457360Y470337D01*
X457436Y471207D01*
X457588Y472066D01*
X457814Y472910D01*
X458112Y473730D01*
X458481Y474522D01*
X458918Y475278D01*
X459419Y475993D01*
X459980Y476662D01*
X460598Y477280D01*
X461267Y477841D01*
X461982Y478342D01*
X462738Y478779D01*
X463530Y479148D01*
X464350Y479446D01*
X465194Y479672D01*
X466054Y479824D01*
X466923Y479900D01*
X467797Y479900D01*
X468667Y479824D01*
X469526Y479672D01*
X470370Y479446D01*
X471190Y479148D01*
X471982Y478779D01*
X472738Y478342D01*
X473453Y477841D01*
X474122Y477280D01*
X474740Y476662D01*
X475301Y475993D01*
X475802Y475278D01*
X476239Y474522D01*
X476608Y473730D01*
X476906Y472910D01*
X477132Y472066D01*
X477284Y471207D01*
X477360Y470337D01*
X477360Y469463D01*
X914240Y469463D02*
X914164Y468594D01*
X914012Y467734D01*
X913786Y466890D01*
X913488Y466070D01*
X913119Y465278D01*
X912682Y464522D01*
X912181Y463807D01*
X911620Y463138D01*
X911002Y462520D01*
X910333Y461959D01*
X909618Y461458D01*
X908862Y461021D01*
X908070Y460652D01*
X907250Y460354D01*
X906406Y460128D01*
X905547Y459976D01*
X904677Y459900D01*
X903803Y459900D01*
X902934Y459976D01*
X902074Y460128D01*
X901230Y460354D01*
X900410Y460652D01*
X899618Y461021D01*
X898862Y461458D01*
X898147Y461959D01*
X897478Y462520D01*
X896860Y463138D01*
X896299Y463807D01*
X895798Y464522D01*
X895361Y465278D01*
X894992Y466070D01*
X894694Y466890D01*
X894468Y467734D01*
X894316Y468594D01*
X894240Y469463D01*
X894240Y470337D01*
X894316Y471207D01*
X894468Y472066D01*
X894694Y472910D01*
X894992Y473730D01*
X895361Y474522D01*
X895798Y475278D01*
X896299Y475993D01*
X896860Y476662D01*
X897478Y477280D01*
X898147Y477841D01*
X898862Y478342D01*
X899618Y478779D01*
X900410Y479148D01*
X901230Y479446D01*
X902074Y479672D01*
X902934Y479824D01*
X903803Y479900D01*
X904677Y479900D01*
X905547Y479824D01*
X906406Y479672D01*
X907250Y479446D01*
X908070Y479148D01*
X908862Y478779D01*
X909618Y478342D01*
X910333Y477841D01*
X911002Y477280D01*
X911620Y476662D01*
X912181Y475993D01*
X912682Y475278D01*
X913119Y474522D01*
X913488Y473730D01*
X913786Y472910D01*
X914012Y472066D01*
X914164Y471207D01*
X914240Y470337D01*
X914240Y469463D01*
X477360Y698063D02*
X477284Y697194D01*
X477132Y696334D01*
X476906Y695490D01*
X476608Y694670D01*
X476239Y693878D01*
X475802Y693122D01*
X475301Y692407D01*
X474740Y691738D01*
X474122Y691120D01*
X473453Y690559D01*
X472738Y690058D01*
X471982Y689621D01*
X471190Y689252D01*
X470370Y688954D01*
X469526Y688728D01*
X468667Y688576D01*
X467797Y688500D01*
X466923Y688500D01*
X466054Y688576D01*
X465194Y688728D01*
X464350Y688954D01*
X463530Y689252D01*
X462738Y689621D01*
X461982Y690058D01*
X461267Y690559D01*
X460598Y691120D01*
X459980Y691738D01*
X459419Y692407D01*
X458918Y693122D01*
X458481Y693878D01*
X458112Y694670D01*
X457814Y695490D01*
X457588Y696334D01*
X457436Y697194D01*
X457360Y698063D01*
X457360Y698937D01*
X457436Y699807D01*
X457588Y700666D01*
X457814Y701510D01*
X458112Y702330D01*
X458481Y703122D01*
X458918Y703878D01*
X459419Y704593D01*
X459980Y705262D01*
X460598Y705880D01*
X461267Y706441D01*
X461982Y706942D01*
X462738Y707379D01*
X463530Y707748D01*
X464350Y708046D01*
X465194Y708272D01*
X466054Y708424D01*
X466923Y708500D01*
X467797Y708500D01*
X468667Y708424D01*
X469526Y708272D01*
X470370Y708046D01*
X471190Y707748D01*
X471982Y707379D01*
X472738Y706942D01*
X473453Y706441D01*
X474122Y705880D01*
X474740Y705262D01*
X475301Y704593D01*
X475802Y703878D01*
X476239Y703122D01*
X476608Y702330D01*
X476906Y701510D01*
X477132Y700666D01*
X477284Y699807D01*
X477360Y698937D01*
X477360Y698063D01*
X914240Y698063D02*
X914164Y697194D01*
X914012Y696334D01*
X913786Y695490D01*
X913488Y694670D01*
X913119Y693878D01*
X912682Y693122D01*
X912181Y692407D01*
X911620Y691738D01*
X911002Y691120D01*
X910333Y690559D01*
X909618Y690058D01*
X908862Y689621D01*
X908070Y689252D01*
X907250Y688954D01*
X906406Y688728D01*
X905547Y688576D01*
X904677Y688500D01*
X903803Y688500D01*
X902934Y688576D01*
X902074Y688728D01*
X901230Y688954D01*
X900410Y689252D01*
X899618Y689621D01*
X898862Y690058D01*
X898147Y690559D01*
X897478Y691120D01*
X896860Y691738D01*
X896299Y692407D01*
X895798Y693122D01*
X895361Y693878D01*
X894992Y694670D01*
X894694Y695490D01*
X894468Y696334D01*
X894316Y697194D01*
X894240Y698063D01*
X894240Y698937D01*
X894316Y699807D01*
X894468Y700666D01*
X894694Y701510D01*
X894992Y702330D01*
X895361Y703122D01*
X895798Y703878D01*
X896299Y704593D01*
X896860Y705262D01*
X897478Y705880D01*
X898147Y706441D01*
X898862Y706942D01*
X899618Y707379D01*
X900410Y707748D01*
X901230Y708046D01*
X902074Y708272D01*
X902934Y708424D01*
X903803Y708500D01*
X904677Y708500D01*
X905547Y708424D01*
X906406Y708272D01*
X907250Y708046D01*
X908070Y707748D01*
X908862Y707379D01*
X909618Y706942D01*
X910333Y706441D01*
X911002Y705880D01*
X911620Y705262D01*
X912181Y704593D01*
X912682Y703878D01*
X913119Y703122D01*
X913488Y702330D01*
X913786Y701510D01*
X914012Y700666D01*
X914164Y699807D01*
X914240Y698937D01*
X914240Y698063D01*
M02*
