G04 EAGLE Gerber RS-274X export*
G75*
%MOMM*%
%FSLAX34Y34*%
%LPD*%
%INSoldermask Top*%
%IPPOS*%
%AMOC8*
5,1,8,0,0,1.08239X$1,22.5*%
G01*
%ADD10R,1.676400X1.676400*%
%ADD11P,1.814519X8X22.500000*%
%ADD12R,1.440400X1.440400*%
%ADD13C,1.440400*%
%ADD14C,3.372400*%
%ADD15R,1.803400X1.803400*%
%ADD16C,1.803400*%
%ADD17C,1.272400*%
%ADD18R,0.952400X0.952400*%
%ADD19C,1.552400*%
%ADD20C,2.652400*%
%ADD21C,2.112400*%
%ADD22R,0.660400X0.762000*%
%ADD23C,2.152400*%
%ADD24C,1.930400*%
%ADD25R,0.762000X0.660400*%
%ADD26C,4.597400*%
%ADD27C,0.609600*%
%ADD28C,1.168400*%
%ADD29R,1.295400X1.422400*%


D10*
X84500Y276600D03*
D11*
X84500Y302000D03*
X109900Y276600D03*
X109900Y302000D03*
X135300Y276600D03*
X135300Y302000D03*
X160700Y276600D03*
X160700Y302000D03*
X186100Y276600D03*
X186100Y302000D03*
X211500Y276600D03*
X211500Y302000D03*
X236900Y276600D03*
X236900Y302000D03*
X262300Y276600D03*
X262300Y302000D03*
X287700Y276600D03*
X287700Y302000D03*
X313100Y276600D03*
X313100Y302000D03*
X338500Y276600D03*
X338500Y302000D03*
X363900Y276600D03*
X363900Y302000D03*
X389300Y276600D03*
X389300Y302000D03*
X414700Y276600D03*
X414700Y302000D03*
X440100Y276600D03*
X440100Y302000D03*
X465500Y276600D03*
X465500Y302000D03*
X490900Y276600D03*
X490900Y302000D03*
X516300Y276600D03*
X516300Y302000D03*
D10*
X84500Y530600D03*
D11*
X84500Y556000D03*
X109900Y530600D03*
X109900Y556000D03*
X135300Y530600D03*
X135300Y556000D03*
X160700Y530600D03*
X160700Y556000D03*
X186100Y530600D03*
X186100Y556000D03*
X211500Y530600D03*
X211500Y556000D03*
X236900Y530600D03*
X236900Y556000D03*
X262300Y530600D03*
X262300Y556000D03*
X287700Y530600D03*
X287700Y556000D03*
X313100Y530600D03*
X313100Y556000D03*
X338500Y530600D03*
X338500Y556000D03*
X363900Y530600D03*
X363900Y556000D03*
X389300Y530600D03*
X389300Y556000D03*
X414700Y530600D03*
X414700Y556000D03*
X440100Y530600D03*
X440100Y556000D03*
X465500Y530600D03*
X465500Y556000D03*
X490900Y530600D03*
X490900Y556000D03*
X516300Y530600D03*
X516300Y556000D03*
D12*
X152400Y177800D03*
D13*
X177400Y177800D03*
X197400Y177800D03*
X222400Y177800D03*
D14*
X121700Y150700D03*
X253100Y150700D03*
D15*
X596900Y177800D03*
D16*
X596900Y152400D03*
X596900Y127000D03*
D17*
X101600Y680200D03*
X101600Y615200D03*
D18*
X652900Y342900D03*
X667900Y342900D03*
X652900Y254000D03*
X667900Y254000D03*
D19*
X457600Y63500D03*
X482600Y63500D03*
X507600Y63500D03*
D20*
X432600Y133500D03*
X532600Y133500D03*
D21*
X367300Y660000D03*
X367300Y610000D03*
X242300Y610000D03*
X242300Y660000D03*
D22*
X228600Y680212D03*
X228600Y691388D03*
D23*
X467360Y469900D03*
X904240Y469900D03*
X467360Y698500D03*
X904240Y698500D03*
D24*
X726440Y698500D03*
X701040Y698500D03*
X675640Y698500D03*
X650240Y698500D03*
D25*
X731012Y520700D03*
X742188Y520700D03*
X832612Y469900D03*
X843788Y469900D03*
D26*
X38100Y38100D03*
X38100Y723900D03*
X977900Y723900D03*
X977900Y38100D03*
D27*
X68580Y63500D02*
X68582Y63687D01*
X68589Y63874D01*
X68601Y64061D01*
X68617Y64247D01*
X68637Y64433D01*
X68662Y64618D01*
X68692Y64803D01*
X68726Y64987D01*
X68765Y65170D01*
X68808Y65352D01*
X68856Y65532D01*
X68908Y65712D01*
X68965Y65890D01*
X69025Y66067D01*
X69091Y66242D01*
X69160Y66416D01*
X69234Y66588D01*
X69312Y66758D01*
X69394Y66926D01*
X69480Y67092D01*
X69570Y67256D01*
X69664Y67417D01*
X69762Y67577D01*
X69864Y67733D01*
X69970Y67888D01*
X70080Y68039D01*
X70193Y68188D01*
X70310Y68334D01*
X70430Y68477D01*
X70554Y68617D01*
X70681Y68754D01*
X70812Y68888D01*
X70946Y69019D01*
X71083Y69146D01*
X71223Y69270D01*
X71366Y69390D01*
X71512Y69507D01*
X71661Y69620D01*
X71812Y69730D01*
X71967Y69836D01*
X72123Y69938D01*
X72283Y70036D01*
X72444Y70130D01*
X72608Y70220D01*
X72774Y70306D01*
X72942Y70388D01*
X73112Y70466D01*
X73284Y70540D01*
X73458Y70609D01*
X73633Y70675D01*
X73810Y70735D01*
X73988Y70792D01*
X74168Y70844D01*
X74348Y70892D01*
X74530Y70935D01*
X74713Y70974D01*
X74897Y71008D01*
X75082Y71038D01*
X75267Y71063D01*
X75453Y71083D01*
X75639Y71099D01*
X75826Y71111D01*
X76013Y71118D01*
X76200Y71120D01*
X76387Y71118D01*
X76574Y71111D01*
X76761Y71099D01*
X76947Y71083D01*
X77133Y71063D01*
X77318Y71038D01*
X77503Y71008D01*
X77687Y70974D01*
X77870Y70935D01*
X78052Y70892D01*
X78232Y70844D01*
X78412Y70792D01*
X78590Y70735D01*
X78767Y70675D01*
X78942Y70609D01*
X79116Y70540D01*
X79288Y70466D01*
X79458Y70388D01*
X79626Y70306D01*
X79792Y70220D01*
X79956Y70130D01*
X80117Y70036D01*
X80277Y69938D01*
X80433Y69836D01*
X80588Y69730D01*
X80739Y69620D01*
X80888Y69507D01*
X81034Y69390D01*
X81177Y69270D01*
X81317Y69146D01*
X81454Y69019D01*
X81588Y68888D01*
X81719Y68754D01*
X81846Y68617D01*
X81970Y68477D01*
X82090Y68334D01*
X82207Y68188D01*
X82320Y68039D01*
X82430Y67888D01*
X82536Y67733D01*
X82638Y67577D01*
X82736Y67417D01*
X82830Y67256D01*
X82920Y67092D01*
X83006Y66926D01*
X83088Y66758D01*
X83166Y66588D01*
X83240Y66416D01*
X83309Y66242D01*
X83375Y66067D01*
X83435Y65890D01*
X83492Y65712D01*
X83544Y65532D01*
X83592Y65352D01*
X83635Y65170D01*
X83674Y64987D01*
X83708Y64803D01*
X83738Y64618D01*
X83763Y64433D01*
X83783Y64247D01*
X83799Y64061D01*
X83811Y63874D01*
X83818Y63687D01*
X83820Y63500D01*
X83818Y63313D01*
X83811Y63126D01*
X83799Y62939D01*
X83783Y62753D01*
X83763Y62567D01*
X83738Y62382D01*
X83708Y62197D01*
X83674Y62013D01*
X83635Y61830D01*
X83592Y61648D01*
X83544Y61468D01*
X83492Y61288D01*
X83435Y61110D01*
X83375Y60933D01*
X83309Y60758D01*
X83240Y60584D01*
X83166Y60412D01*
X83088Y60242D01*
X83006Y60074D01*
X82920Y59908D01*
X82830Y59744D01*
X82736Y59583D01*
X82638Y59423D01*
X82536Y59267D01*
X82430Y59112D01*
X82320Y58961D01*
X82207Y58812D01*
X82090Y58666D01*
X81970Y58523D01*
X81846Y58383D01*
X81719Y58246D01*
X81588Y58112D01*
X81454Y57981D01*
X81317Y57854D01*
X81177Y57730D01*
X81034Y57610D01*
X80888Y57493D01*
X80739Y57380D01*
X80588Y57270D01*
X80433Y57164D01*
X80277Y57062D01*
X80117Y56964D01*
X79956Y56870D01*
X79792Y56780D01*
X79626Y56694D01*
X79458Y56612D01*
X79288Y56534D01*
X79116Y56460D01*
X78942Y56391D01*
X78767Y56325D01*
X78590Y56265D01*
X78412Y56208D01*
X78232Y56156D01*
X78052Y56108D01*
X77870Y56065D01*
X77687Y56026D01*
X77503Y55992D01*
X77318Y55962D01*
X77133Y55937D01*
X76947Y55917D01*
X76761Y55901D01*
X76574Y55889D01*
X76387Y55882D01*
X76200Y55880D01*
X76013Y55882D01*
X75826Y55889D01*
X75639Y55901D01*
X75453Y55917D01*
X75267Y55937D01*
X75082Y55962D01*
X74897Y55992D01*
X74713Y56026D01*
X74530Y56065D01*
X74348Y56108D01*
X74168Y56156D01*
X73988Y56208D01*
X73810Y56265D01*
X73633Y56325D01*
X73458Y56391D01*
X73284Y56460D01*
X73112Y56534D01*
X72942Y56612D01*
X72774Y56694D01*
X72608Y56780D01*
X72444Y56870D01*
X72283Y56964D01*
X72123Y57062D01*
X71967Y57164D01*
X71812Y57270D01*
X71661Y57380D01*
X71512Y57493D01*
X71366Y57610D01*
X71223Y57730D01*
X71083Y57854D01*
X70946Y57981D01*
X70812Y58112D01*
X70681Y58246D01*
X70554Y58383D01*
X70430Y58523D01*
X70310Y58666D01*
X70193Y58812D01*
X70080Y58961D01*
X69970Y59112D01*
X69864Y59267D01*
X69762Y59423D01*
X69664Y59583D01*
X69570Y59744D01*
X69480Y59908D01*
X69394Y60074D01*
X69312Y60242D01*
X69234Y60412D01*
X69160Y60584D01*
X69091Y60758D01*
X69025Y60933D01*
X68965Y61110D01*
X68908Y61288D01*
X68856Y61468D01*
X68808Y61648D01*
X68765Y61830D01*
X68726Y62013D01*
X68692Y62197D01*
X68662Y62382D01*
X68637Y62567D01*
X68617Y62753D01*
X68601Y62939D01*
X68589Y63126D01*
X68582Y63313D01*
X68580Y63500D01*
D28*
X76200Y63500D03*
D27*
X68580Y723900D02*
X68582Y724087D01*
X68589Y724274D01*
X68601Y724461D01*
X68617Y724647D01*
X68637Y724833D01*
X68662Y725018D01*
X68692Y725203D01*
X68726Y725387D01*
X68765Y725570D01*
X68808Y725752D01*
X68856Y725932D01*
X68908Y726112D01*
X68965Y726290D01*
X69025Y726467D01*
X69091Y726642D01*
X69160Y726816D01*
X69234Y726988D01*
X69312Y727158D01*
X69394Y727326D01*
X69480Y727492D01*
X69570Y727656D01*
X69664Y727817D01*
X69762Y727977D01*
X69864Y728133D01*
X69970Y728288D01*
X70080Y728439D01*
X70193Y728588D01*
X70310Y728734D01*
X70430Y728877D01*
X70554Y729017D01*
X70681Y729154D01*
X70812Y729288D01*
X70946Y729419D01*
X71083Y729546D01*
X71223Y729670D01*
X71366Y729790D01*
X71512Y729907D01*
X71661Y730020D01*
X71812Y730130D01*
X71967Y730236D01*
X72123Y730338D01*
X72283Y730436D01*
X72444Y730530D01*
X72608Y730620D01*
X72774Y730706D01*
X72942Y730788D01*
X73112Y730866D01*
X73284Y730940D01*
X73458Y731009D01*
X73633Y731075D01*
X73810Y731135D01*
X73988Y731192D01*
X74168Y731244D01*
X74348Y731292D01*
X74530Y731335D01*
X74713Y731374D01*
X74897Y731408D01*
X75082Y731438D01*
X75267Y731463D01*
X75453Y731483D01*
X75639Y731499D01*
X75826Y731511D01*
X76013Y731518D01*
X76200Y731520D01*
X76387Y731518D01*
X76574Y731511D01*
X76761Y731499D01*
X76947Y731483D01*
X77133Y731463D01*
X77318Y731438D01*
X77503Y731408D01*
X77687Y731374D01*
X77870Y731335D01*
X78052Y731292D01*
X78232Y731244D01*
X78412Y731192D01*
X78590Y731135D01*
X78767Y731075D01*
X78942Y731009D01*
X79116Y730940D01*
X79288Y730866D01*
X79458Y730788D01*
X79626Y730706D01*
X79792Y730620D01*
X79956Y730530D01*
X80117Y730436D01*
X80277Y730338D01*
X80433Y730236D01*
X80588Y730130D01*
X80739Y730020D01*
X80888Y729907D01*
X81034Y729790D01*
X81177Y729670D01*
X81317Y729546D01*
X81454Y729419D01*
X81588Y729288D01*
X81719Y729154D01*
X81846Y729017D01*
X81970Y728877D01*
X82090Y728734D01*
X82207Y728588D01*
X82320Y728439D01*
X82430Y728288D01*
X82536Y728133D01*
X82638Y727977D01*
X82736Y727817D01*
X82830Y727656D01*
X82920Y727492D01*
X83006Y727326D01*
X83088Y727158D01*
X83166Y726988D01*
X83240Y726816D01*
X83309Y726642D01*
X83375Y726467D01*
X83435Y726290D01*
X83492Y726112D01*
X83544Y725932D01*
X83592Y725752D01*
X83635Y725570D01*
X83674Y725387D01*
X83708Y725203D01*
X83738Y725018D01*
X83763Y724833D01*
X83783Y724647D01*
X83799Y724461D01*
X83811Y724274D01*
X83818Y724087D01*
X83820Y723900D01*
X83818Y723713D01*
X83811Y723526D01*
X83799Y723339D01*
X83783Y723153D01*
X83763Y722967D01*
X83738Y722782D01*
X83708Y722597D01*
X83674Y722413D01*
X83635Y722230D01*
X83592Y722048D01*
X83544Y721868D01*
X83492Y721688D01*
X83435Y721510D01*
X83375Y721333D01*
X83309Y721158D01*
X83240Y720984D01*
X83166Y720812D01*
X83088Y720642D01*
X83006Y720474D01*
X82920Y720308D01*
X82830Y720144D01*
X82736Y719983D01*
X82638Y719823D01*
X82536Y719667D01*
X82430Y719512D01*
X82320Y719361D01*
X82207Y719212D01*
X82090Y719066D01*
X81970Y718923D01*
X81846Y718783D01*
X81719Y718646D01*
X81588Y718512D01*
X81454Y718381D01*
X81317Y718254D01*
X81177Y718130D01*
X81034Y718010D01*
X80888Y717893D01*
X80739Y717780D01*
X80588Y717670D01*
X80433Y717564D01*
X80277Y717462D01*
X80117Y717364D01*
X79956Y717270D01*
X79792Y717180D01*
X79626Y717094D01*
X79458Y717012D01*
X79288Y716934D01*
X79116Y716860D01*
X78942Y716791D01*
X78767Y716725D01*
X78590Y716665D01*
X78412Y716608D01*
X78232Y716556D01*
X78052Y716508D01*
X77870Y716465D01*
X77687Y716426D01*
X77503Y716392D01*
X77318Y716362D01*
X77133Y716337D01*
X76947Y716317D01*
X76761Y716301D01*
X76574Y716289D01*
X76387Y716282D01*
X76200Y716280D01*
X76013Y716282D01*
X75826Y716289D01*
X75639Y716301D01*
X75453Y716317D01*
X75267Y716337D01*
X75082Y716362D01*
X74897Y716392D01*
X74713Y716426D01*
X74530Y716465D01*
X74348Y716508D01*
X74168Y716556D01*
X73988Y716608D01*
X73810Y716665D01*
X73633Y716725D01*
X73458Y716791D01*
X73284Y716860D01*
X73112Y716934D01*
X72942Y717012D01*
X72774Y717094D01*
X72608Y717180D01*
X72444Y717270D01*
X72283Y717364D01*
X72123Y717462D01*
X71967Y717564D01*
X71812Y717670D01*
X71661Y717780D01*
X71512Y717893D01*
X71366Y718010D01*
X71223Y718130D01*
X71083Y718254D01*
X70946Y718381D01*
X70812Y718512D01*
X70681Y718646D01*
X70554Y718783D01*
X70430Y718923D01*
X70310Y719066D01*
X70193Y719212D01*
X70080Y719361D01*
X69970Y719512D01*
X69864Y719667D01*
X69762Y719823D01*
X69664Y719983D01*
X69570Y720144D01*
X69480Y720308D01*
X69394Y720474D01*
X69312Y720642D01*
X69234Y720812D01*
X69160Y720984D01*
X69091Y721158D01*
X69025Y721333D01*
X68965Y721510D01*
X68908Y721688D01*
X68856Y721868D01*
X68808Y722048D01*
X68765Y722230D01*
X68726Y722413D01*
X68692Y722597D01*
X68662Y722782D01*
X68637Y722967D01*
X68617Y723153D01*
X68601Y723339D01*
X68589Y723526D01*
X68582Y723713D01*
X68580Y723900D01*
D28*
X76200Y723900D03*
D27*
X932180Y63500D02*
X932182Y63687D01*
X932189Y63874D01*
X932201Y64061D01*
X932217Y64247D01*
X932237Y64433D01*
X932262Y64618D01*
X932292Y64803D01*
X932326Y64987D01*
X932365Y65170D01*
X932408Y65352D01*
X932456Y65532D01*
X932508Y65712D01*
X932565Y65890D01*
X932625Y66067D01*
X932691Y66242D01*
X932760Y66416D01*
X932834Y66588D01*
X932912Y66758D01*
X932994Y66926D01*
X933080Y67092D01*
X933170Y67256D01*
X933264Y67417D01*
X933362Y67577D01*
X933464Y67733D01*
X933570Y67888D01*
X933680Y68039D01*
X933793Y68188D01*
X933910Y68334D01*
X934030Y68477D01*
X934154Y68617D01*
X934281Y68754D01*
X934412Y68888D01*
X934546Y69019D01*
X934683Y69146D01*
X934823Y69270D01*
X934966Y69390D01*
X935112Y69507D01*
X935261Y69620D01*
X935412Y69730D01*
X935567Y69836D01*
X935723Y69938D01*
X935883Y70036D01*
X936044Y70130D01*
X936208Y70220D01*
X936374Y70306D01*
X936542Y70388D01*
X936712Y70466D01*
X936884Y70540D01*
X937058Y70609D01*
X937233Y70675D01*
X937410Y70735D01*
X937588Y70792D01*
X937768Y70844D01*
X937948Y70892D01*
X938130Y70935D01*
X938313Y70974D01*
X938497Y71008D01*
X938682Y71038D01*
X938867Y71063D01*
X939053Y71083D01*
X939239Y71099D01*
X939426Y71111D01*
X939613Y71118D01*
X939800Y71120D01*
X939987Y71118D01*
X940174Y71111D01*
X940361Y71099D01*
X940547Y71083D01*
X940733Y71063D01*
X940918Y71038D01*
X941103Y71008D01*
X941287Y70974D01*
X941470Y70935D01*
X941652Y70892D01*
X941832Y70844D01*
X942012Y70792D01*
X942190Y70735D01*
X942367Y70675D01*
X942542Y70609D01*
X942716Y70540D01*
X942888Y70466D01*
X943058Y70388D01*
X943226Y70306D01*
X943392Y70220D01*
X943556Y70130D01*
X943717Y70036D01*
X943877Y69938D01*
X944033Y69836D01*
X944188Y69730D01*
X944339Y69620D01*
X944488Y69507D01*
X944634Y69390D01*
X944777Y69270D01*
X944917Y69146D01*
X945054Y69019D01*
X945188Y68888D01*
X945319Y68754D01*
X945446Y68617D01*
X945570Y68477D01*
X945690Y68334D01*
X945807Y68188D01*
X945920Y68039D01*
X946030Y67888D01*
X946136Y67733D01*
X946238Y67577D01*
X946336Y67417D01*
X946430Y67256D01*
X946520Y67092D01*
X946606Y66926D01*
X946688Y66758D01*
X946766Y66588D01*
X946840Y66416D01*
X946909Y66242D01*
X946975Y66067D01*
X947035Y65890D01*
X947092Y65712D01*
X947144Y65532D01*
X947192Y65352D01*
X947235Y65170D01*
X947274Y64987D01*
X947308Y64803D01*
X947338Y64618D01*
X947363Y64433D01*
X947383Y64247D01*
X947399Y64061D01*
X947411Y63874D01*
X947418Y63687D01*
X947420Y63500D01*
X947418Y63313D01*
X947411Y63126D01*
X947399Y62939D01*
X947383Y62753D01*
X947363Y62567D01*
X947338Y62382D01*
X947308Y62197D01*
X947274Y62013D01*
X947235Y61830D01*
X947192Y61648D01*
X947144Y61468D01*
X947092Y61288D01*
X947035Y61110D01*
X946975Y60933D01*
X946909Y60758D01*
X946840Y60584D01*
X946766Y60412D01*
X946688Y60242D01*
X946606Y60074D01*
X946520Y59908D01*
X946430Y59744D01*
X946336Y59583D01*
X946238Y59423D01*
X946136Y59267D01*
X946030Y59112D01*
X945920Y58961D01*
X945807Y58812D01*
X945690Y58666D01*
X945570Y58523D01*
X945446Y58383D01*
X945319Y58246D01*
X945188Y58112D01*
X945054Y57981D01*
X944917Y57854D01*
X944777Y57730D01*
X944634Y57610D01*
X944488Y57493D01*
X944339Y57380D01*
X944188Y57270D01*
X944033Y57164D01*
X943877Y57062D01*
X943717Y56964D01*
X943556Y56870D01*
X943392Y56780D01*
X943226Y56694D01*
X943058Y56612D01*
X942888Y56534D01*
X942716Y56460D01*
X942542Y56391D01*
X942367Y56325D01*
X942190Y56265D01*
X942012Y56208D01*
X941832Y56156D01*
X941652Y56108D01*
X941470Y56065D01*
X941287Y56026D01*
X941103Y55992D01*
X940918Y55962D01*
X940733Y55937D01*
X940547Y55917D01*
X940361Y55901D01*
X940174Y55889D01*
X939987Y55882D01*
X939800Y55880D01*
X939613Y55882D01*
X939426Y55889D01*
X939239Y55901D01*
X939053Y55917D01*
X938867Y55937D01*
X938682Y55962D01*
X938497Y55992D01*
X938313Y56026D01*
X938130Y56065D01*
X937948Y56108D01*
X937768Y56156D01*
X937588Y56208D01*
X937410Y56265D01*
X937233Y56325D01*
X937058Y56391D01*
X936884Y56460D01*
X936712Y56534D01*
X936542Y56612D01*
X936374Y56694D01*
X936208Y56780D01*
X936044Y56870D01*
X935883Y56964D01*
X935723Y57062D01*
X935567Y57164D01*
X935412Y57270D01*
X935261Y57380D01*
X935112Y57493D01*
X934966Y57610D01*
X934823Y57730D01*
X934683Y57854D01*
X934546Y57981D01*
X934412Y58112D01*
X934281Y58246D01*
X934154Y58383D01*
X934030Y58523D01*
X933910Y58666D01*
X933793Y58812D01*
X933680Y58961D01*
X933570Y59112D01*
X933464Y59267D01*
X933362Y59423D01*
X933264Y59583D01*
X933170Y59744D01*
X933080Y59908D01*
X932994Y60074D01*
X932912Y60242D01*
X932834Y60412D01*
X932760Y60584D01*
X932691Y60758D01*
X932625Y60933D01*
X932565Y61110D01*
X932508Y61288D01*
X932456Y61468D01*
X932408Y61648D01*
X932365Y61830D01*
X932326Y62013D01*
X932292Y62197D01*
X932262Y62382D01*
X932237Y62567D01*
X932217Y62753D01*
X932201Y62939D01*
X932189Y63126D01*
X932182Y63313D01*
X932180Y63500D01*
D28*
X939800Y63500D03*
D29*
X918210Y127000D03*
X935990Y127000D03*
M02*
