G04 EAGLE Gerber RS-274X export*
G75*
%MOMM*%
%FSLAX34Y34*%
%LPD*%
%INCopper Layer 15*%
%IPPOS*%
%AMOC8*
5,1,8,0,0,1.08239X$1,22.5*%
G01*
%ADD10C,1.244600*%
%ADD11C,1.288000*%
%ADD12C,3.220000*%
%ADD13C,1.120000*%
%ADD14C,1.400000*%
%ADD15C,1.960000*%
%ADD16C,1.422400*%
%ADD17C,4.191000*%
%ADD18C,0.609600*%
%ADD19C,0.254000*%

G36*
X1012109Y2556D02*
X1012109Y2556D01*
X1012228Y2563D01*
X1012266Y2575D01*
X1012307Y2581D01*
X1012417Y2624D01*
X1012530Y2661D01*
X1012565Y2683D01*
X1012602Y2698D01*
X1012698Y2767D01*
X1012799Y2831D01*
X1012827Y2861D01*
X1012860Y2884D01*
X1012935Y2976D01*
X1013017Y3063D01*
X1013036Y3098D01*
X1013062Y3129D01*
X1013113Y3237D01*
X1013170Y3341D01*
X1013181Y3380D01*
X1013198Y3417D01*
X1013220Y3534D01*
X1013250Y3649D01*
X1013254Y3709D01*
X1013258Y3729D01*
X1013256Y3750D01*
X1013260Y3810D01*
X1013458Y758190D01*
X1013443Y758308D01*
X1013436Y758427D01*
X1013424Y758465D01*
X1013419Y758505D01*
X1013375Y758616D01*
X1013338Y758729D01*
X1013316Y758764D01*
X1013302Y758801D01*
X1013232Y758897D01*
X1013168Y758998D01*
X1013138Y759026D01*
X1013115Y759058D01*
X1013023Y759134D01*
X1012936Y759216D01*
X1012901Y759236D01*
X1012870Y759261D01*
X1012762Y759312D01*
X1012658Y759370D01*
X1012619Y759380D01*
X1012582Y759397D01*
X1012465Y759419D01*
X1012350Y759449D01*
X1012290Y759453D01*
X1012270Y759457D01*
X1012249Y759455D01*
X1012189Y759459D01*
X3810Y759459D01*
X3692Y759444D01*
X3573Y759437D01*
X3535Y759424D01*
X3494Y759419D01*
X3384Y759376D01*
X3271Y759339D01*
X3236Y759317D01*
X3199Y759302D01*
X3103Y759233D01*
X3002Y759169D01*
X2974Y759139D01*
X2941Y759116D01*
X2865Y759024D01*
X2784Y758937D01*
X2764Y758902D01*
X2739Y758871D01*
X2688Y758763D01*
X2630Y758659D01*
X2620Y758619D01*
X2603Y758583D01*
X2581Y758466D01*
X2551Y758351D01*
X2547Y758291D01*
X2543Y758271D01*
X2545Y758250D01*
X2541Y758190D01*
X2541Y3810D01*
X2556Y3692D01*
X2563Y3573D01*
X2576Y3535D01*
X2581Y3494D01*
X2624Y3384D01*
X2661Y3271D01*
X2683Y3236D01*
X2698Y3199D01*
X2767Y3103D01*
X2831Y3002D01*
X2861Y2974D01*
X2884Y2941D01*
X2976Y2865D01*
X3063Y2784D01*
X3098Y2764D01*
X3129Y2739D01*
X3237Y2688D01*
X3341Y2630D01*
X3381Y2620D01*
X3417Y2603D01*
X3534Y2581D01*
X3649Y2551D01*
X3709Y2547D01*
X3729Y2543D01*
X3750Y2545D01*
X3810Y2541D01*
X1011991Y2541D01*
X1012109Y2556D01*
G37*
%LPC*%
G36*
X33426Y14604D02*
X33426Y14604D01*
X24791Y18181D01*
X18181Y24791D01*
X14604Y33426D01*
X14604Y42774D01*
X18181Y51409D01*
X24791Y58019D01*
X33426Y61596D01*
X42774Y61596D01*
X51409Y58019D01*
X58019Y51409D01*
X61629Y42694D01*
X61643Y42669D01*
X61652Y42641D01*
X61722Y42531D01*
X61786Y42418D01*
X61807Y42397D01*
X61822Y42372D01*
X61917Y42283D01*
X62007Y42190D01*
X62033Y42174D01*
X62054Y42154D01*
X62168Y42091D01*
X62279Y42023D01*
X62307Y42015D01*
X62333Y42000D01*
X62458Y41968D01*
X62582Y41930D01*
X62612Y41928D01*
X62641Y41921D01*
X62801Y41911D01*
X71581Y41911D01*
X71680Y41923D01*
X71779Y41926D01*
X71837Y41943D01*
X71897Y41951D01*
X71989Y41987D01*
X72084Y42015D01*
X72136Y42045D01*
X72193Y42068D01*
X72273Y42126D01*
X72358Y42176D01*
X72433Y42242D01*
X72450Y42254D01*
X72458Y42264D01*
X72479Y42282D01*
X73034Y42838D01*
X75088Y43689D01*
X77312Y43689D01*
X79366Y42838D01*
X80938Y41266D01*
X81789Y39212D01*
X81789Y36988D01*
X80938Y34934D01*
X79366Y33362D01*
X77312Y32511D01*
X75088Y32511D01*
X73034Y33362D01*
X72479Y33918D01*
X72401Y33978D01*
X72328Y34046D01*
X72275Y34075D01*
X72228Y34112D01*
X72137Y34152D01*
X72050Y34200D01*
X71991Y34215D01*
X71936Y34239D01*
X71838Y34254D01*
X71742Y34279D01*
X71642Y34285D01*
X71622Y34289D01*
X71609Y34287D01*
X71581Y34289D01*
X62801Y34289D01*
X62772Y34286D01*
X62742Y34288D01*
X62614Y34266D01*
X62486Y34249D01*
X62458Y34239D01*
X62429Y34234D01*
X62311Y34180D01*
X62190Y34132D01*
X62166Y34115D01*
X62139Y34103D01*
X62038Y34022D01*
X61933Y33946D01*
X61914Y33923D01*
X61891Y33904D01*
X61813Y33801D01*
X61730Y33701D01*
X61717Y33674D01*
X61699Y33650D01*
X61629Y33506D01*
X58019Y24791D01*
X51409Y18181D01*
X42774Y14604D01*
X33426Y14604D01*
G37*
%LPD*%
%LPC*%
G36*
X973226Y700404D02*
X973226Y700404D01*
X964591Y703981D01*
X957981Y710591D01*
X954404Y719226D01*
X954404Y728574D01*
X957981Y737209D01*
X964591Y743819D01*
X973226Y747396D01*
X982574Y747396D01*
X991209Y743819D01*
X997819Y737209D01*
X1001396Y728574D01*
X1001396Y719226D01*
X997819Y710591D01*
X991209Y703981D01*
X982574Y700404D01*
X973226Y700404D01*
G37*
%LPD*%
%LPC*%
G36*
X33426Y700404D02*
X33426Y700404D01*
X24791Y703981D01*
X18181Y710591D01*
X14604Y719226D01*
X14604Y728574D01*
X18181Y737209D01*
X24791Y743819D01*
X33426Y747396D01*
X42774Y747396D01*
X51409Y743819D01*
X58019Y737209D01*
X61596Y728574D01*
X61596Y719226D01*
X58019Y710591D01*
X51409Y703981D01*
X42774Y700404D01*
X33426Y700404D01*
G37*
%LPD*%
%LPC*%
G36*
X973226Y14604D02*
X973226Y14604D01*
X964591Y18181D01*
X957981Y24791D01*
X954404Y33426D01*
X954404Y42774D01*
X957981Y51409D01*
X964591Y58019D01*
X973226Y61596D01*
X982574Y61596D01*
X991209Y58019D01*
X997819Y51409D01*
X1001396Y42774D01*
X1001396Y33426D01*
X997819Y24791D01*
X991209Y18181D01*
X982574Y14604D01*
X973226Y14604D01*
G37*
%LPD*%
%LPC*%
G36*
X117992Y132059D02*
X117992Y132059D01*
X111141Y134897D01*
X105897Y140141D01*
X103059Y146992D01*
X103059Y154408D01*
X105897Y161259D01*
X111141Y166503D01*
X117992Y169341D01*
X125408Y169341D01*
X132259Y166503D01*
X137503Y161259D01*
X140341Y154408D01*
X140341Y146992D01*
X137503Y140141D01*
X132259Y134897D01*
X125408Y132059D01*
X117992Y132059D01*
G37*
%LPD*%
%LPC*%
G36*
X249392Y132059D02*
X249392Y132059D01*
X242541Y134897D01*
X237297Y140141D01*
X234459Y146992D01*
X234459Y154408D01*
X237297Y161259D01*
X242541Y166503D01*
X249392Y169341D01*
X256808Y169341D01*
X263659Y166503D01*
X268903Y161259D01*
X271741Y154408D01*
X271741Y146992D01*
X268903Y140141D01*
X263659Y134897D01*
X256808Y132059D01*
X249392Y132059D01*
G37*
%LPD*%
%LPC*%
G36*
X529608Y118459D02*
X529608Y118459D01*
X524080Y120749D01*
X519849Y124980D01*
X517559Y130508D01*
X517559Y136492D01*
X519849Y142020D01*
X524080Y146251D01*
X529608Y148541D01*
X535592Y148541D01*
X541120Y146251D01*
X545351Y142020D01*
X547641Y136492D01*
X547641Y130508D01*
X545351Y124980D01*
X541120Y120749D01*
X535592Y118459D01*
X529608Y118459D01*
G37*
%LPD*%
%LPC*%
G36*
X429608Y118459D02*
X429608Y118459D01*
X424080Y120749D01*
X419849Y124980D01*
X417559Y130508D01*
X417559Y136492D01*
X419849Y142020D01*
X424080Y146251D01*
X429608Y148541D01*
X435592Y148541D01*
X441120Y146251D01*
X445351Y142020D01*
X447641Y136492D01*
X447641Y130508D01*
X445351Y124980D01*
X441120Y120749D01*
X435592Y118459D01*
X429608Y118459D01*
G37*
%LPD*%
%LPC*%
G36*
X175614Y168819D02*
X175614Y168819D01*
X172313Y170186D01*
X169786Y172713D01*
X168419Y176014D01*
X168419Y179586D01*
X169786Y182887D01*
X172313Y185414D01*
X175614Y186781D01*
X179186Y186781D01*
X182487Y185414D01*
X185014Y182887D01*
X186227Y179957D01*
X186296Y179836D01*
X186361Y179713D01*
X186375Y179698D01*
X186385Y179680D01*
X186482Y179580D01*
X186575Y179478D01*
X186592Y179466D01*
X186606Y179452D01*
X186724Y179379D01*
X186841Y179303D01*
X186860Y179296D01*
X186877Y179286D01*
X187010Y179245D01*
X187142Y179200D01*
X187162Y179198D01*
X187181Y179192D01*
X187320Y179185D01*
X187459Y179174D01*
X187479Y179178D01*
X187499Y179177D01*
X187635Y179205D01*
X187772Y179229D01*
X187791Y179237D01*
X187810Y179241D01*
X187935Y179302D01*
X188062Y179359D01*
X188078Y179372D01*
X188096Y179381D01*
X188202Y179471D01*
X188310Y179558D01*
X188323Y179574D01*
X188338Y179587D01*
X188418Y179701D01*
X188502Y179812D01*
X188514Y179837D01*
X188521Y179847D01*
X188528Y179867D01*
X188573Y179957D01*
X189786Y182887D01*
X192313Y185414D01*
X195614Y186781D01*
X199186Y186781D01*
X202487Y185414D01*
X205014Y182887D01*
X206381Y179586D01*
X206381Y176014D01*
X205014Y172713D01*
X202487Y170186D01*
X199186Y168819D01*
X195614Y168819D01*
X192313Y170186D01*
X189786Y172713D01*
X188573Y175643D01*
X188504Y175764D01*
X188439Y175887D01*
X188425Y175902D01*
X188415Y175920D01*
X188318Y176020D01*
X188225Y176122D01*
X188208Y176133D01*
X188194Y176148D01*
X188075Y176221D01*
X187959Y176297D01*
X187940Y176304D01*
X187923Y176314D01*
X187790Y176355D01*
X187658Y176400D01*
X187638Y176402D01*
X187619Y176408D01*
X187480Y176415D01*
X187341Y176426D01*
X187321Y176422D01*
X187301Y176423D01*
X187165Y176395D01*
X187028Y176371D01*
X187009Y176363D01*
X186990Y176359D01*
X186864Y176297D01*
X186738Y176241D01*
X186722Y176228D01*
X186704Y176219D01*
X186598Y176129D01*
X186490Y176042D01*
X186477Y176026D01*
X186462Y176013D01*
X186382Y175899D01*
X186298Y175788D01*
X186286Y175763D01*
X186279Y175753D01*
X186272Y175733D01*
X186227Y175643D01*
X185014Y172713D01*
X182487Y170186D01*
X179186Y168819D01*
X175614Y168819D01*
G37*
%LPD*%
%LPC*%
G36*
X901745Y685959D02*
X901745Y685959D01*
X897136Y687868D01*
X893608Y691396D01*
X891699Y696005D01*
X891699Y700995D01*
X893608Y705604D01*
X897136Y709132D01*
X901745Y711041D01*
X906735Y711041D01*
X911344Y709132D01*
X914872Y705604D01*
X916781Y700995D01*
X916781Y696005D01*
X914872Y691396D01*
X911344Y687868D01*
X906735Y685959D01*
X901745Y685959D01*
G37*
%LPD*%
%LPC*%
G36*
X464865Y457359D02*
X464865Y457359D01*
X460256Y459268D01*
X456728Y462796D01*
X454819Y467405D01*
X454819Y472395D01*
X456728Y477004D01*
X460256Y480532D01*
X464865Y482441D01*
X469855Y482441D01*
X474464Y480532D01*
X477992Y477004D01*
X479901Y472395D01*
X479901Y467405D01*
X477992Y462796D01*
X474464Y459268D01*
X469855Y457359D01*
X464865Y457359D01*
G37*
%LPD*%
%LPC*%
G36*
X901745Y457359D02*
X901745Y457359D01*
X897136Y459268D01*
X893608Y462796D01*
X891699Y467405D01*
X891699Y472395D01*
X893608Y477004D01*
X897136Y480532D01*
X901745Y482441D01*
X906735Y482441D01*
X911344Y480532D01*
X914872Y477004D01*
X916781Y472395D01*
X916781Y467405D01*
X914872Y462796D01*
X911344Y459268D01*
X906735Y457359D01*
X901745Y457359D01*
G37*
%LPD*%
%LPC*%
G36*
X464865Y685959D02*
X464865Y685959D01*
X460256Y687868D01*
X456728Y691396D01*
X454819Y696005D01*
X454819Y700995D01*
X456728Y705604D01*
X460256Y709132D01*
X464865Y711041D01*
X469855Y711041D01*
X474464Y709132D01*
X477992Y705604D01*
X479901Y700995D01*
X479901Y696005D01*
X477992Y691396D01*
X474464Y687868D01*
X469855Y685959D01*
X464865Y685959D01*
G37*
%LPD*%
%LPC*%
G36*
X239845Y597659D02*
X239845Y597659D01*
X235310Y599538D01*
X231838Y603010D01*
X229959Y607545D01*
X229959Y612455D01*
X231838Y616990D01*
X235310Y620462D01*
X239845Y622341D01*
X244755Y622341D01*
X249290Y620462D01*
X252762Y616990D01*
X254641Y612455D01*
X254641Y607545D01*
X252762Y603010D01*
X249290Y599538D01*
X244755Y597659D01*
X239845Y597659D01*
G37*
%LPD*%
%LPC*%
G36*
X364845Y597659D02*
X364845Y597659D01*
X360310Y599538D01*
X356838Y603010D01*
X354959Y607545D01*
X354959Y612455D01*
X356838Y616990D01*
X360310Y620462D01*
X364845Y622341D01*
X369755Y622341D01*
X374290Y620462D01*
X377762Y616990D01*
X379641Y612455D01*
X379641Y607545D01*
X377762Y603010D01*
X374290Y599538D01*
X369755Y597659D01*
X364845Y597659D01*
G37*
%LPD*%
%LPC*%
G36*
X364845Y647659D02*
X364845Y647659D01*
X360310Y649538D01*
X356838Y653010D01*
X354959Y657545D01*
X354959Y662455D01*
X356838Y666990D01*
X360310Y670462D01*
X364845Y672341D01*
X369755Y672341D01*
X374290Y670462D01*
X377762Y666990D01*
X379641Y662455D01*
X379641Y657545D01*
X377762Y653010D01*
X374290Y649538D01*
X369755Y647659D01*
X364845Y647659D01*
G37*
%LPD*%
%LPC*%
G36*
X239845Y647659D02*
X239845Y647659D01*
X235310Y649538D01*
X231838Y653010D01*
X229959Y657545D01*
X229959Y662455D01*
X231838Y666990D01*
X235310Y670462D01*
X239845Y672341D01*
X244755Y672341D01*
X249290Y670462D01*
X252762Y666990D01*
X254641Y662455D01*
X254641Y657545D01*
X252762Y653010D01*
X249290Y649538D01*
X244755Y647659D01*
X239845Y647659D01*
G37*
%LPD*%
%LPC*%
G36*
X151288Y153161D02*
X151288Y153161D01*
X149234Y154012D01*
X147662Y155584D01*
X146811Y157638D01*
X146811Y159862D01*
X147662Y161916D01*
X148218Y162471D01*
X148278Y162549D01*
X148346Y162622D01*
X148375Y162675D01*
X148412Y162722D01*
X148452Y162813D01*
X148500Y162900D01*
X148515Y162959D01*
X148539Y163014D01*
X148554Y163112D01*
X148579Y163208D01*
X148585Y163308D01*
X148589Y163328D01*
X148587Y163341D01*
X148589Y163369D01*
X148589Y168810D01*
X148586Y168839D01*
X148588Y168868D01*
X148566Y168996D01*
X148561Y169030D01*
X148560Y169049D01*
X148558Y169056D01*
X148549Y169125D01*
X148539Y169153D01*
X148534Y169182D01*
X148480Y169300D01*
X148474Y169317D01*
X148462Y169352D01*
X148456Y169362D01*
X148432Y169421D01*
X148415Y169445D01*
X148403Y169472D01*
X148323Y169572D01*
X148292Y169621D01*
X148277Y169634D01*
X148246Y169678D01*
X148223Y169697D01*
X148204Y169720D01*
X148114Y169788D01*
X148060Y169839D01*
X148035Y169853D01*
X148001Y169881D01*
X147974Y169894D01*
X147950Y169911D01*
X147806Y169982D01*
X147313Y170187D01*
X144786Y172713D01*
X143419Y176014D01*
X143419Y179586D01*
X144786Y182887D01*
X147313Y185414D01*
X150614Y186781D01*
X154186Y186781D01*
X157487Y185414D01*
X160014Y182887D01*
X161381Y179586D01*
X161381Y176014D01*
X160014Y172713D01*
X157487Y170187D01*
X156994Y169982D01*
X156969Y169968D01*
X156941Y169959D01*
X156907Y169937D01*
X156875Y169925D01*
X156809Y169877D01*
X156718Y169825D01*
X156697Y169804D01*
X156672Y169788D01*
X156638Y169752D01*
X156618Y169738D01*
X156576Y169687D01*
X156490Y169604D01*
X156474Y169578D01*
X156454Y169557D01*
X156426Y169506D01*
X156415Y169493D01*
X156395Y169450D01*
X156391Y169443D01*
X156323Y169332D01*
X156315Y169304D01*
X156300Y169278D01*
X156284Y169214D01*
X156280Y169205D01*
X156275Y169178D01*
X156268Y169153D01*
X156230Y169028D01*
X156228Y168999D01*
X156221Y168970D01*
X156211Y168810D01*
X156211Y163369D01*
X156223Y163270D01*
X156226Y163171D01*
X156243Y163113D01*
X156251Y163053D01*
X156287Y162961D01*
X156315Y162866D01*
X156345Y162814D01*
X156368Y162757D01*
X156426Y162677D01*
X156476Y162592D01*
X156542Y162517D01*
X156554Y162500D01*
X156564Y162492D01*
X156582Y162471D01*
X157138Y161916D01*
X157989Y159862D01*
X157989Y157638D01*
X157138Y155584D01*
X155566Y154012D01*
X153512Y153161D01*
X151288Y153161D01*
G37*
%LPD*%
%LPC*%
G36*
X99981Y672059D02*
X99981Y672059D01*
X96989Y673299D01*
X94699Y675589D01*
X93459Y678581D01*
X93459Y681819D01*
X94699Y684811D01*
X96989Y687101D01*
X99981Y688341D01*
X103219Y688341D01*
X106211Y687101D01*
X108501Y684811D01*
X108508Y684794D01*
X108523Y684769D01*
X108532Y684741D01*
X108602Y684631D01*
X108666Y684518D01*
X108686Y684497D01*
X108702Y684472D01*
X108797Y684383D01*
X108887Y684290D01*
X108912Y684274D01*
X108934Y684254D01*
X109048Y684191D01*
X109158Y684123D01*
X109187Y684115D01*
X109212Y684100D01*
X109338Y684068D01*
X109462Y684030D01*
X109492Y684028D01*
X109520Y684021D01*
X109681Y684011D01*
X116804Y684011D01*
X116813Y684012D01*
X116823Y684011D01*
X116971Y684032D01*
X117120Y684051D01*
X117128Y684054D01*
X117137Y684055D01*
X117290Y684107D01*
X119538Y685039D01*
X121762Y685039D01*
X123816Y684188D01*
X125388Y682616D01*
X126239Y680562D01*
X126239Y678338D01*
X125388Y676284D01*
X123816Y674712D01*
X121762Y673861D01*
X119538Y673861D01*
X117484Y674712D01*
X116179Y676018D01*
X116101Y676078D01*
X116028Y676146D01*
X115975Y676175D01*
X115928Y676212D01*
X115837Y676252D01*
X115750Y676300D01*
X115691Y676315D01*
X115636Y676339D01*
X115538Y676354D01*
X115442Y676379D01*
X115342Y676385D01*
X115322Y676389D01*
X115309Y676387D01*
X115281Y676389D01*
X109681Y676389D01*
X109652Y676386D01*
X109622Y676388D01*
X109494Y676366D01*
X109366Y676349D01*
X109338Y676339D01*
X109309Y676334D01*
X109190Y676280D01*
X109070Y676232D01*
X109046Y676215D01*
X109019Y676203D01*
X108918Y676122D01*
X108813Y676046D01*
X108794Y676023D01*
X108771Y676004D01*
X108693Y675901D01*
X108610Y675801D01*
X108597Y675774D01*
X108579Y675750D01*
X108508Y675606D01*
X108501Y675589D01*
X106211Y673299D01*
X103219Y672059D01*
X99981Y672059D01*
G37*
%LPD*%
%LPC*%
G36*
X699120Y688847D02*
X699120Y688847D01*
X695572Y690317D01*
X692857Y693032D01*
X691387Y696580D01*
X691387Y700420D01*
X692857Y703968D01*
X695572Y706683D01*
X699120Y708153D01*
X702960Y708153D01*
X706508Y706683D01*
X709223Y703968D01*
X710693Y700420D01*
X710693Y696580D01*
X709223Y693032D01*
X706508Y690317D01*
X702960Y688847D01*
X699120Y688847D01*
G37*
%LPD*%
%LPC*%
G36*
X673720Y688847D02*
X673720Y688847D01*
X670172Y690317D01*
X667457Y693032D01*
X665987Y696580D01*
X665987Y700420D01*
X667457Y703968D01*
X670172Y706683D01*
X673720Y708153D01*
X677560Y708153D01*
X681108Y706683D01*
X683823Y703968D01*
X685293Y700420D01*
X685293Y696580D01*
X683823Y693032D01*
X681108Y690317D01*
X677560Y688847D01*
X673720Y688847D01*
G37*
%LPD*%
%LPC*%
G36*
X724520Y688847D02*
X724520Y688847D01*
X720972Y690317D01*
X718257Y693032D01*
X716787Y696580D01*
X716787Y700420D01*
X718257Y703968D01*
X720972Y706683D01*
X724520Y708153D01*
X728360Y708153D01*
X731908Y706683D01*
X734623Y703968D01*
X736093Y700420D01*
X736093Y696580D01*
X734623Y693032D01*
X731908Y690317D01*
X728360Y688847D01*
X724520Y688847D01*
G37*
%LPD*%
%LPC*%
G36*
X480702Y53959D02*
X480702Y53959D01*
X477196Y55412D01*
X474512Y58096D01*
X473059Y61602D01*
X473059Y65398D01*
X474512Y68904D01*
X477196Y71588D01*
X480702Y73041D01*
X484498Y73041D01*
X488004Y71588D01*
X490688Y68904D01*
X492141Y65398D01*
X492141Y61602D01*
X490688Y58096D01*
X488004Y55412D01*
X484498Y53959D01*
X480702Y53959D01*
G37*
%LPD*%
%LPC*%
G36*
X455702Y53959D02*
X455702Y53959D01*
X452196Y55412D01*
X449512Y58096D01*
X448059Y61602D01*
X448059Y65398D01*
X449512Y68904D01*
X452196Y71588D01*
X455702Y73041D01*
X459498Y73041D01*
X463004Y71588D01*
X465688Y68904D01*
X467141Y65398D01*
X467141Y61602D01*
X465688Y58096D01*
X463004Y55412D01*
X459498Y53959D01*
X455702Y53959D01*
G37*
%LPD*%
%LPC*%
G36*
X505702Y53959D02*
X505702Y53959D01*
X502196Y55412D01*
X499512Y58096D01*
X498059Y61602D01*
X498059Y65398D01*
X499512Y68904D01*
X502196Y71588D01*
X505702Y73041D01*
X509498Y73041D01*
X513004Y71588D01*
X515688Y68904D01*
X517141Y65398D01*
X517141Y61602D01*
X515688Y58096D01*
X513004Y55412D01*
X509498Y53959D01*
X505702Y53959D01*
G37*
%LPD*%
%LPC*%
G36*
X220614Y168819D02*
X220614Y168819D01*
X217313Y170186D01*
X214786Y172713D01*
X213419Y176014D01*
X213419Y179586D01*
X214786Y182887D01*
X217313Y185414D01*
X220614Y186781D01*
X224186Y186781D01*
X227487Y185414D01*
X230014Y182887D01*
X231381Y179586D01*
X231381Y176014D01*
X230014Y172713D01*
X227487Y170186D01*
X224186Y168819D01*
X220614Y168819D01*
G37*
%LPD*%
%LPC*%
G36*
X463757Y547236D02*
X463757Y547236D01*
X460536Y548570D01*
X458070Y551036D01*
X456736Y554257D01*
X456736Y557743D01*
X458070Y560964D01*
X460536Y563430D01*
X463757Y564764D01*
X467243Y564764D01*
X470464Y563430D01*
X472930Y560964D01*
X474264Y557743D01*
X474264Y554257D01*
X472930Y551036D01*
X470464Y548570D01*
X467243Y547236D01*
X463757Y547236D01*
G37*
%LPD*%
%LPC*%
G36*
X438357Y547236D02*
X438357Y547236D01*
X435136Y548570D01*
X432670Y551036D01*
X431336Y554257D01*
X431336Y557743D01*
X432670Y560964D01*
X435136Y563430D01*
X438357Y564764D01*
X441843Y564764D01*
X445064Y563430D01*
X447530Y560964D01*
X448864Y557743D01*
X448864Y554257D01*
X447530Y551036D01*
X445064Y548570D01*
X441843Y547236D01*
X438357Y547236D01*
G37*
%LPD*%
%LPC*%
G36*
X108157Y547236D02*
X108157Y547236D01*
X104936Y548570D01*
X102470Y551036D01*
X101136Y554257D01*
X101136Y557743D01*
X102470Y560964D01*
X104936Y563430D01*
X108157Y564764D01*
X111643Y564764D01*
X114864Y563430D01*
X117330Y560964D01*
X118664Y557743D01*
X118664Y554257D01*
X117330Y551036D01*
X114864Y548570D01*
X111643Y547236D01*
X108157Y547236D01*
G37*
%LPD*%
%LPC*%
G36*
X82757Y547236D02*
X82757Y547236D01*
X79536Y548570D01*
X77070Y551036D01*
X75736Y554257D01*
X75736Y557743D01*
X77070Y560964D01*
X79536Y563430D01*
X82757Y564764D01*
X86243Y564764D01*
X89464Y563430D01*
X91930Y560964D01*
X93264Y557743D01*
X93264Y554257D01*
X91930Y551036D01*
X89464Y548570D01*
X86243Y547236D01*
X82757Y547236D01*
G37*
%LPD*%
%LPC*%
G36*
X362157Y547236D02*
X362157Y547236D01*
X358936Y548570D01*
X356470Y551036D01*
X355136Y554257D01*
X355136Y557743D01*
X356470Y560964D01*
X358936Y563430D01*
X362157Y564764D01*
X365643Y564764D01*
X368864Y563430D01*
X371330Y560964D01*
X372664Y557743D01*
X372664Y554257D01*
X371330Y551036D01*
X368864Y548570D01*
X365643Y547236D01*
X362157Y547236D01*
G37*
%LPD*%
%LPC*%
G36*
X336757Y547236D02*
X336757Y547236D01*
X333536Y548570D01*
X331070Y551036D01*
X329736Y554257D01*
X329736Y557743D01*
X331070Y560964D01*
X333536Y563430D01*
X336757Y564764D01*
X340243Y564764D01*
X343464Y563430D01*
X345930Y560964D01*
X347264Y557743D01*
X347264Y554257D01*
X345930Y551036D01*
X343464Y548570D01*
X340243Y547236D01*
X336757Y547236D01*
G37*
%LPD*%
%LPC*%
G36*
X311357Y547236D02*
X311357Y547236D01*
X308136Y548570D01*
X305670Y551036D01*
X304336Y554257D01*
X304336Y557743D01*
X305670Y560964D01*
X308136Y563430D01*
X311357Y564764D01*
X314843Y564764D01*
X318064Y563430D01*
X320530Y560964D01*
X321864Y557743D01*
X321864Y554257D01*
X320530Y551036D01*
X318064Y548570D01*
X314843Y547236D01*
X311357Y547236D01*
G37*
%LPD*%
%LPC*%
G36*
X285957Y547236D02*
X285957Y547236D01*
X282736Y548570D01*
X280270Y551036D01*
X278936Y554257D01*
X278936Y557743D01*
X280270Y560964D01*
X282736Y563430D01*
X285957Y564764D01*
X289443Y564764D01*
X292664Y563430D01*
X295130Y560964D01*
X296464Y557743D01*
X296464Y554257D01*
X295130Y551036D01*
X292664Y548570D01*
X289443Y547236D01*
X285957Y547236D01*
G37*
%LPD*%
%LPC*%
G36*
X260557Y547236D02*
X260557Y547236D01*
X257336Y548570D01*
X254870Y551036D01*
X253536Y554257D01*
X253536Y557743D01*
X254870Y560964D01*
X257336Y563430D01*
X260557Y564764D01*
X264043Y564764D01*
X267264Y563430D01*
X269730Y560964D01*
X271064Y557743D01*
X271064Y554257D01*
X269730Y551036D01*
X267264Y548570D01*
X264043Y547236D01*
X260557Y547236D01*
G37*
%LPD*%
%LPC*%
G36*
X235157Y547236D02*
X235157Y547236D01*
X231936Y548570D01*
X229470Y551036D01*
X228136Y554257D01*
X228136Y557743D01*
X229470Y560964D01*
X231936Y563430D01*
X235157Y564764D01*
X238643Y564764D01*
X241864Y563430D01*
X244330Y560964D01*
X245664Y557743D01*
X245664Y554257D01*
X244330Y551036D01*
X241864Y548570D01*
X238643Y547236D01*
X235157Y547236D01*
G37*
%LPD*%
%LPC*%
G36*
X209757Y547236D02*
X209757Y547236D01*
X206536Y548570D01*
X204070Y551036D01*
X202736Y554257D01*
X202736Y557743D01*
X204070Y560964D01*
X206536Y563430D01*
X209757Y564764D01*
X213243Y564764D01*
X216464Y563430D01*
X218930Y560964D01*
X220264Y557743D01*
X220264Y554257D01*
X218930Y551036D01*
X216464Y548570D01*
X213243Y547236D01*
X209757Y547236D01*
G37*
%LPD*%
%LPC*%
G36*
X184357Y547236D02*
X184357Y547236D01*
X181136Y548570D01*
X178670Y551036D01*
X177336Y554257D01*
X177336Y557743D01*
X178670Y560964D01*
X181136Y563430D01*
X184357Y564764D01*
X187843Y564764D01*
X191064Y563430D01*
X193530Y560964D01*
X194864Y557743D01*
X194864Y554257D01*
X193530Y551036D01*
X191064Y548570D01*
X187843Y547236D01*
X184357Y547236D01*
G37*
%LPD*%
%LPC*%
G36*
X158957Y547236D02*
X158957Y547236D01*
X155736Y548570D01*
X153270Y551036D01*
X151936Y554257D01*
X151936Y557743D01*
X153270Y560964D01*
X155736Y563430D01*
X158957Y564764D01*
X162443Y564764D01*
X165664Y563430D01*
X168130Y560964D01*
X169464Y557743D01*
X169464Y554257D01*
X168130Y551036D01*
X165664Y548570D01*
X162443Y547236D01*
X158957Y547236D01*
G37*
%LPD*%
%LPC*%
G36*
X133557Y547236D02*
X133557Y547236D01*
X130336Y548570D01*
X127870Y551036D01*
X126536Y554257D01*
X126536Y557743D01*
X127870Y560964D01*
X130336Y563430D01*
X133557Y564764D01*
X137043Y564764D01*
X140264Y563430D01*
X142730Y560964D01*
X144064Y557743D01*
X144064Y554257D01*
X142730Y551036D01*
X140264Y548570D01*
X137043Y547236D01*
X133557Y547236D01*
G37*
%LPD*%
%LPC*%
G36*
X489157Y521836D02*
X489157Y521836D01*
X485936Y523170D01*
X483470Y525636D01*
X482136Y528857D01*
X482136Y532343D01*
X483470Y535564D01*
X485936Y538030D01*
X489157Y539364D01*
X492643Y539364D01*
X495864Y538030D01*
X498330Y535564D01*
X499664Y532343D01*
X499664Y528857D01*
X498330Y525636D01*
X495864Y523170D01*
X492643Y521836D01*
X489157Y521836D01*
G37*
%LPD*%
%LPC*%
G36*
X463757Y521836D02*
X463757Y521836D01*
X460536Y523170D01*
X458070Y525636D01*
X456736Y528857D01*
X456736Y532343D01*
X458070Y535564D01*
X460536Y538030D01*
X463757Y539364D01*
X467243Y539364D01*
X470464Y538030D01*
X472930Y535564D01*
X474264Y532343D01*
X474264Y528857D01*
X472930Y525636D01*
X470464Y523170D01*
X467243Y521836D01*
X463757Y521836D01*
G37*
%LPD*%
%LPC*%
G36*
X514557Y521836D02*
X514557Y521836D01*
X511336Y523170D01*
X508870Y525636D01*
X507536Y528857D01*
X507536Y532343D01*
X508870Y535564D01*
X511336Y538030D01*
X514557Y539364D01*
X518043Y539364D01*
X521264Y538030D01*
X523730Y535564D01*
X525064Y532343D01*
X525064Y528857D01*
X523730Y525636D01*
X521264Y523170D01*
X518043Y521836D01*
X514557Y521836D01*
G37*
%LPD*%
%LPC*%
G36*
X438357Y521836D02*
X438357Y521836D01*
X435136Y523170D01*
X432670Y525636D01*
X431336Y528857D01*
X431336Y532343D01*
X432670Y535564D01*
X435136Y538030D01*
X438357Y539364D01*
X441843Y539364D01*
X445064Y538030D01*
X447530Y535564D01*
X448864Y532343D01*
X448864Y528857D01*
X447530Y525636D01*
X445064Y523170D01*
X441843Y521836D01*
X438357Y521836D01*
G37*
%LPD*%
%LPC*%
G36*
X412957Y521836D02*
X412957Y521836D01*
X409736Y523170D01*
X407270Y525636D01*
X405936Y528857D01*
X405936Y532343D01*
X407270Y535564D01*
X409736Y538030D01*
X412957Y539364D01*
X416443Y539364D01*
X419664Y538030D01*
X422130Y535564D01*
X423464Y532343D01*
X423464Y528857D01*
X422130Y525636D01*
X419664Y523170D01*
X416443Y521836D01*
X412957Y521836D01*
G37*
%LPD*%
%LPC*%
G36*
X387557Y521836D02*
X387557Y521836D01*
X384336Y523170D01*
X381870Y525636D01*
X380536Y528857D01*
X380536Y532343D01*
X381870Y535564D01*
X384336Y538030D01*
X387557Y539364D01*
X391043Y539364D01*
X394264Y538030D01*
X396730Y535564D01*
X398064Y532343D01*
X398064Y528857D01*
X396730Y525636D01*
X394264Y523170D01*
X391043Y521836D01*
X387557Y521836D01*
G37*
%LPD*%
%LPC*%
G36*
X336757Y521836D02*
X336757Y521836D01*
X333536Y523170D01*
X331070Y525636D01*
X329736Y528857D01*
X329736Y532343D01*
X331070Y535564D01*
X333536Y538030D01*
X336757Y539364D01*
X340243Y539364D01*
X343464Y538030D01*
X345930Y535564D01*
X347264Y532343D01*
X347264Y528857D01*
X345930Y525636D01*
X343464Y523170D01*
X340243Y521836D01*
X336757Y521836D01*
G37*
%LPD*%
%LPC*%
G36*
X311357Y521836D02*
X311357Y521836D01*
X308136Y523170D01*
X305670Y525636D01*
X304336Y528857D01*
X304336Y532343D01*
X305670Y535564D01*
X308136Y538030D01*
X311357Y539364D01*
X314843Y539364D01*
X318064Y538030D01*
X320530Y535564D01*
X321864Y532343D01*
X321864Y528857D01*
X320530Y525636D01*
X318064Y523170D01*
X314843Y521836D01*
X311357Y521836D01*
G37*
%LPD*%
%LPC*%
G36*
X285957Y521836D02*
X285957Y521836D01*
X282736Y523170D01*
X280270Y525636D01*
X278936Y528857D01*
X278936Y532343D01*
X280270Y535564D01*
X282736Y538030D01*
X285957Y539364D01*
X289443Y539364D01*
X292664Y538030D01*
X295130Y535564D01*
X296464Y532343D01*
X296464Y528857D01*
X295130Y525636D01*
X292664Y523170D01*
X289443Y521836D01*
X285957Y521836D01*
G37*
%LPD*%
%LPC*%
G36*
X260557Y521836D02*
X260557Y521836D01*
X257336Y523170D01*
X254870Y525636D01*
X253536Y528857D01*
X253536Y532343D01*
X254870Y535564D01*
X257336Y538030D01*
X260557Y539364D01*
X264043Y539364D01*
X267264Y538030D01*
X269730Y535564D01*
X271064Y532343D01*
X271064Y528857D01*
X269730Y525636D01*
X267264Y523170D01*
X264043Y521836D01*
X260557Y521836D01*
G37*
%LPD*%
%LPC*%
G36*
X235157Y521836D02*
X235157Y521836D01*
X231936Y523170D01*
X229470Y525636D01*
X228136Y528857D01*
X228136Y532343D01*
X229470Y535564D01*
X231936Y538030D01*
X235157Y539364D01*
X238643Y539364D01*
X241864Y538030D01*
X244330Y535564D01*
X245664Y532343D01*
X245664Y528857D01*
X244330Y525636D01*
X241864Y523170D01*
X238643Y521836D01*
X235157Y521836D01*
G37*
%LPD*%
%LPC*%
G36*
X209757Y521836D02*
X209757Y521836D01*
X206536Y523170D01*
X204070Y525636D01*
X202736Y528857D01*
X202736Y532343D01*
X204070Y535564D01*
X206536Y538030D01*
X209757Y539364D01*
X213243Y539364D01*
X216464Y538030D01*
X218930Y535564D01*
X220264Y532343D01*
X220264Y528857D01*
X218930Y525636D01*
X216464Y523170D01*
X213243Y521836D01*
X209757Y521836D01*
G37*
%LPD*%
%LPC*%
G36*
X184357Y521836D02*
X184357Y521836D01*
X181136Y523170D01*
X178670Y525636D01*
X177336Y528857D01*
X177336Y532343D01*
X178670Y535564D01*
X181136Y538030D01*
X184357Y539364D01*
X187843Y539364D01*
X191064Y538030D01*
X193530Y535564D01*
X194864Y532343D01*
X194864Y528857D01*
X193530Y525636D01*
X191064Y523170D01*
X187843Y521836D01*
X184357Y521836D01*
G37*
%LPD*%
%LPC*%
G36*
X158957Y521836D02*
X158957Y521836D01*
X155736Y523170D01*
X153270Y525636D01*
X151936Y528857D01*
X151936Y532343D01*
X153270Y535564D01*
X155736Y538030D01*
X158957Y539364D01*
X162443Y539364D01*
X165664Y538030D01*
X168130Y535564D01*
X169464Y532343D01*
X169464Y528857D01*
X168130Y525636D01*
X165664Y523170D01*
X162443Y521836D01*
X158957Y521836D01*
G37*
%LPD*%
%LPC*%
G36*
X133557Y521836D02*
X133557Y521836D01*
X130336Y523170D01*
X127870Y525636D01*
X126536Y528857D01*
X126536Y532343D01*
X127870Y535564D01*
X130336Y538030D01*
X133557Y539364D01*
X137043Y539364D01*
X140264Y538030D01*
X142730Y535564D01*
X144064Y532343D01*
X144064Y528857D01*
X142730Y525636D01*
X140264Y523170D01*
X137043Y521836D01*
X133557Y521836D01*
G37*
%LPD*%
%LPC*%
G36*
X108157Y521836D02*
X108157Y521836D01*
X104936Y523170D01*
X102470Y525636D01*
X101136Y528857D01*
X101136Y532343D01*
X102470Y535564D01*
X104936Y538030D01*
X108157Y539364D01*
X111643Y539364D01*
X114864Y538030D01*
X117330Y535564D01*
X118664Y532343D01*
X118664Y528857D01*
X117330Y525636D01*
X114864Y523170D01*
X111643Y521836D01*
X108157Y521836D01*
G37*
%LPD*%
%LPC*%
G36*
X82757Y521836D02*
X82757Y521836D01*
X79536Y523170D01*
X77070Y525636D01*
X75736Y528857D01*
X75736Y532343D01*
X77070Y535564D01*
X79536Y538030D01*
X82757Y539364D01*
X86243Y539364D01*
X89464Y538030D01*
X91930Y535564D01*
X93264Y532343D01*
X93264Y528857D01*
X91930Y525636D01*
X89464Y523170D01*
X86243Y521836D01*
X82757Y521836D01*
G37*
%LPD*%
%LPC*%
G36*
X489157Y547236D02*
X489157Y547236D01*
X485936Y548570D01*
X483470Y551036D01*
X482136Y554257D01*
X482136Y557743D01*
X483470Y560964D01*
X485936Y563430D01*
X489157Y564764D01*
X492643Y564764D01*
X495864Y563430D01*
X498330Y560964D01*
X499664Y557743D01*
X499664Y554257D01*
X498330Y551036D01*
X495864Y548570D01*
X492643Y547236D01*
X489157Y547236D01*
G37*
%LPD*%
%LPC*%
G36*
X514557Y547236D02*
X514557Y547236D01*
X511336Y548570D01*
X508870Y551036D01*
X507536Y554257D01*
X507536Y557743D01*
X508870Y560964D01*
X511336Y563430D01*
X514557Y564764D01*
X518043Y564764D01*
X521264Y563430D01*
X523730Y560964D01*
X525064Y557743D01*
X525064Y554257D01*
X523730Y551036D01*
X521264Y548570D01*
X518043Y547236D01*
X514557Y547236D01*
G37*
%LPD*%
%LPC*%
G36*
X595157Y169036D02*
X595157Y169036D01*
X591936Y170370D01*
X589470Y172836D01*
X588136Y176057D01*
X588136Y179543D01*
X589470Y182764D01*
X591936Y185230D01*
X595157Y186564D01*
X598643Y186564D01*
X601864Y185230D01*
X604330Y182764D01*
X605664Y179543D01*
X605664Y176057D01*
X604330Y172836D01*
X601864Y170370D01*
X598643Y169036D01*
X595157Y169036D01*
G37*
%LPD*%
%LPC*%
G36*
X387557Y547236D02*
X387557Y547236D01*
X384336Y548570D01*
X381870Y551036D01*
X380536Y554257D01*
X380536Y557743D01*
X381870Y560964D01*
X384336Y563430D01*
X387557Y564764D01*
X391043Y564764D01*
X394264Y563430D01*
X396730Y560964D01*
X398064Y557743D01*
X398064Y554257D01*
X396730Y551036D01*
X394264Y548570D01*
X391043Y547236D01*
X387557Y547236D01*
G37*
%LPD*%
%LPC*%
G36*
X412957Y547236D02*
X412957Y547236D01*
X409736Y548570D01*
X407270Y551036D01*
X405936Y554257D01*
X405936Y557743D01*
X407270Y560964D01*
X409736Y563430D01*
X412957Y564764D01*
X416443Y564764D01*
X419664Y563430D01*
X422130Y560964D01*
X423464Y557743D01*
X423464Y554257D01*
X422130Y551036D01*
X419664Y548570D01*
X416443Y547236D01*
X412957Y547236D01*
G37*
%LPD*%
%LPC*%
G36*
X209757Y267836D02*
X209757Y267836D01*
X206536Y269170D01*
X204070Y271636D01*
X202736Y274857D01*
X202736Y278343D01*
X204070Y281564D01*
X206536Y284030D01*
X209757Y285364D01*
X213243Y285364D01*
X216464Y284030D01*
X218930Y281564D01*
X220264Y278343D01*
X220264Y274857D01*
X218930Y271636D01*
X216464Y269170D01*
X213243Y267836D01*
X209757Y267836D01*
G37*
%LPD*%
%LPC*%
G36*
X595157Y143636D02*
X595157Y143636D01*
X591936Y144970D01*
X589470Y147436D01*
X588136Y150657D01*
X588136Y154143D01*
X589470Y157364D01*
X591936Y159830D01*
X595157Y161164D01*
X598643Y161164D01*
X601864Y159830D01*
X604330Y157364D01*
X605664Y154143D01*
X605664Y150657D01*
X604330Y147436D01*
X601864Y144970D01*
X598643Y143636D01*
X595157Y143636D01*
G37*
%LPD*%
%LPC*%
G36*
X514557Y293236D02*
X514557Y293236D01*
X511336Y294570D01*
X508870Y297036D01*
X507536Y300257D01*
X507536Y303743D01*
X508870Y306964D01*
X511336Y309430D01*
X514557Y310764D01*
X518043Y310764D01*
X521264Y309430D01*
X523730Y306964D01*
X525064Y303743D01*
X525064Y300257D01*
X523730Y297036D01*
X521264Y294570D01*
X518043Y293236D01*
X514557Y293236D01*
G37*
%LPD*%
%LPC*%
G36*
X489157Y293236D02*
X489157Y293236D01*
X485936Y294570D01*
X483470Y297036D01*
X482136Y300257D01*
X482136Y303743D01*
X483470Y306964D01*
X485936Y309430D01*
X489157Y310764D01*
X492643Y310764D01*
X495864Y309430D01*
X498330Y306964D01*
X499664Y303743D01*
X499664Y300257D01*
X498330Y297036D01*
X495864Y294570D01*
X492643Y293236D01*
X489157Y293236D01*
G37*
%LPD*%
%LPC*%
G36*
X463757Y293236D02*
X463757Y293236D01*
X460536Y294570D01*
X458070Y297036D01*
X456736Y300257D01*
X456736Y303743D01*
X458070Y306964D01*
X460536Y309430D01*
X463757Y310764D01*
X467243Y310764D01*
X470464Y309430D01*
X472930Y306964D01*
X474264Y303743D01*
X474264Y300257D01*
X472930Y297036D01*
X470464Y294570D01*
X467243Y293236D01*
X463757Y293236D01*
G37*
%LPD*%
%LPC*%
G36*
X438357Y293236D02*
X438357Y293236D01*
X435136Y294570D01*
X432670Y297036D01*
X431336Y300257D01*
X431336Y303743D01*
X432670Y306964D01*
X435136Y309430D01*
X438357Y310764D01*
X441843Y310764D01*
X445064Y309430D01*
X447530Y306964D01*
X448864Y303743D01*
X448864Y300257D01*
X447530Y297036D01*
X445064Y294570D01*
X441843Y293236D01*
X438357Y293236D01*
G37*
%LPD*%
%LPC*%
G36*
X412957Y293236D02*
X412957Y293236D01*
X409736Y294570D01*
X407270Y297036D01*
X405936Y300257D01*
X405936Y303743D01*
X407270Y306964D01*
X409736Y309430D01*
X412957Y310764D01*
X416443Y310764D01*
X419664Y309430D01*
X422130Y306964D01*
X423464Y303743D01*
X423464Y300257D01*
X422130Y297036D01*
X419664Y294570D01*
X416443Y293236D01*
X412957Y293236D01*
G37*
%LPD*%
%LPC*%
G36*
X387557Y293236D02*
X387557Y293236D01*
X384336Y294570D01*
X381870Y297036D01*
X380536Y300257D01*
X380536Y303743D01*
X381870Y306964D01*
X384336Y309430D01*
X387557Y310764D01*
X391043Y310764D01*
X394264Y309430D01*
X396730Y306964D01*
X398064Y303743D01*
X398064Y300257D01*
X396730Y297036D01*
X394264Y294570D01*
X391043Y293236D01*
X387557Y293236D01*
G37*
%LPD*%
%LPC*%
G36*
X362157Y293236D02*
X362157Y293236D01*
X358936Y294570D01*
X356470Y297036D01*
X355136Y300257D01*
X355136Y303743D01*
X356470Y306964D01*
X358936Y309430D01*
X362157Y310764D01*
X365643Y310764D01*
X368864Y309430D01*
X371330Y306964D01*
X372664Y303743D01*
X372664Y300257D01*
X371330Y297036D01*
X368864Y294570D01*
X365643Y293236D01*
X362157Y293236D01*
G37*
%LPD*%
%LPC*%
G36*
X336757Y293236D02*
X336757Y293236D01*
X333536Y294570D01*
X331070Y297036D01*
X329736Y300257D01*
X329736Y303743D01*
X331070Y306964D01*
X333536Y309430D01*
X336757Y310764D01*
X340243Y310764D01*
X343464Y309430D01*
X345930Y306964D01*
X347264Y303743D01*
X347264Y300257D01*
X345930Y297036D01*
X343464Y294570D01*
X340243Y293236D01*
X336757Y293236D01*
G37*
%LPD*%
%LPC*%
G36*
X311357Y293236D02*
X311357Y293236D01*
X308136Y294570D01*
X305670Y297036D01*
X304336Y300257D01*
X304336Y303743D01*
X305670Y306964D01*
X308136Y309430D01*
X311357Y310764D01*
X314843Y310764D01*
X318064Y309430D01*
X320530Y306964D01*
X321864Y303743D01*
X321864Y300257D01*
X320530Y297036D01*
X318064Y294570D01*
X314843Y293236D01*
X311357Y293236D01*
G37*
%LPD*%
%LPC*%
G36*
X285957Y293236D02*
X285957Y293236D01*
X282736Y294570D01*
X280270Y297036D01*
X278936Y300257D01*
X278936Y303743D01*
X280270Y306964D01*
X282736Y309430D01*
X285957Y310764D01*
X289443Y310764D01*
X292664Y309430D01*
X295130Y306964D01*
X296464Y303743D01*
X296464Y300257D01*
X295130Y297036D01*
X292664Y294570D01*
X289443Y293236D01*
X285957Y293236D01*
G37*
%LPD*%
%LPC*%
G36*
X260557Y293236D02*
X260557Y293236D01*
X257336Y294570D01*
X254870Y297036D01*
X253536Y300257D01*
X253536Y303743D01*
X254870Y306964D01*
X257336Y309430D01*
X260557Y310764D01*
X264043Y310764D01*
X267264Y309430D01*
X269730Y306964D01*
X271064Y303743D01*
X271064Y300257D01*
X269730Y297036D01*
X267264Y294570D01*
X264043Y293236D01*
X260557Y293236D01*
G37*
%LPD*%
%LPC*%
G36*
X209757Y293236D02*
X209757Y293236D01*
X206536Y294570D01*
X204070Y297036D01*
X202736Y300257D01*
X202736Y303743D01*
X204070Y306964D01*
X206536Y309430D01*
X209757Y310764D01*
X213243Y310764D01*
X216464Y309430D01*
X218930Y306964D01*
X220264Y303743D01*
X220264Y300257D01*
X218930Y297036D01*
X216464Y294570D01*
X213243Y293236D01*
X209757Y293236D01*
G37*
%LPD*%
%LPC*%
G36*
X184357Y293236D02*
X184357Y293236D01*
X181136Y294570D01*
X178670Y297036D01*
X177336Y300257D01*
X177336Y303743D01*
X178670Y306964D01*
X181136Y309430D01*
X184357Y310764D01*
X187843Y310764D01*
X191064Y309430D01*
X193530Y306964D01*
X194864Y303743D01*
X194864Y300257D01*
X193530Y297036D01*
X191064Y294570D01*
X187843Y293236D01*
X184357Y293236D01*
G37*
%LPD*%
%LPC*%
G36*
X158957Y293236D02*
X158957Y293236D01*
X155736Y294570D01*
X153270Y297036D01*
X151936Y300257D01*
X151936Y303743D01*
X153270Y306964D01*
X155736Y309430D01*
X158957Y310764D01*
X162443Y310764D01*
X165664Y309430D01*
X168130Y306964D01*
X169464Y303743D01*
X169464Y300257D01*
X168130Y297036D01*
X165664Y294570D01*
X162443Y293236D01*
X158957Y293236D01*
G37*
%LPD*%
%LPC*%
G36*
X133557Y293236D02*
X133557Y293236D01*
X130336Y294570D01*
X127870Y297036D01*
X126536Y300257D01*
X126536Y303743D01*
X127870Y306964D01*
X130336Y309430D01*
X133557Y310764D01*
X137043Y310764D01*
X140264Y309430D01*
X142730Y306964D01*
X144064Y303743D01*
X144064Y300257D01*
X142730Y297036D01*
X140264Y294570D01*
X137043Y293236D01*
X133557Y293236D01*
G37*
%LPD*%
%LPC*%
G36*
X108157Y293236D02*
X108157Y293236D01*
X104936Y294570D01*
X102470Y297036D01*
X101136Y300257D01*
X101136Y303743D01*
X102470Y306964D01*
X104936Y309430D01*
X108157Y310764D01*
X111643Y310764D01*
X114864Y309430D01*
X117330Y306964D01*
X118664Y303743D01*
X118664Y300257D01*
X117330Y297036D01*
X114864Y294570D01*
X111643Y293236D01*
X108157Y293236D01*
G37*
%LPD*%
%LPC*%
G36*
X82757Y293236D02*
X82757Y293236D01*
X79536Y294570D01*
X77070Y297036D01*
X75736Y300257D01*
X75736Y303743D01*
X77070Y306964D01*
X79536Y309430D01*
X82757Y310764D01*
X86243Y310764D01*
X89464Y309430D01*
X91930Y306964D01*
X93264Y303743D01*
X93264Y300257D01*
X91930Y297036D01*
X89464Y294570D01*
X86243Y293236D01*
X82757Y293236D01*
G37*
%LPD*%
%LPC*%
G36*
X595157Y118236D02*
X595157Y118236D01*
X591936Y119570D01*
X589470Y122036D01*
X588136Y125257D01*
X588136Y128743D01*
X589470Y131964D01*
X591936Y134430D01*
X595157Y135764D01*
X598643Y135764D01*
X601864Y134430D01*
X604330Y131964D01*
X605664Y128743D01*
X605664Y125257D01*
X604330Y122036D01*
X601864Y119570D01*
X598643Y118236D01*
X595157Y118236D01*
G37*
%LPD*%
%LPC*%
G36*
X82757Y267836D02*
X82757Y267836D01*
X79536Y269170D01*
X77070Y271636D01*
X75736Y274857D01*
X75736Y278343D01*
X77070Y281564D01*
X79536Y284030D01*
X82757Y285364D01*
X86243Y285364D01*
X89464Y284030D01*
X91930Y281564D01*
X93264Y278343D01*
X93264Y274857D01*
X91930Y271636D01*
X89464Y269170D01*
X86243Y267836D01*
X82757Y267836D01*
G37*
%LPD*%
%LPC*%
G36*
X108157Y267836D02*
X108157Y267836D01*
X104936Y269170D01*
X102470Y271636D01*
X101136Y274857D01*
X101136Y278343D01*
X102470Y281564D01*
X104936Y284030D01*
X108157Y285364D01*
X111643Y285364D01*
X114864Y284030D01*
X117330Y281564D01*
X118664Y278343D01*
X118664Y274857D01*
X117330Y271636D01*
X114864Y269170D01*
X111643Y267836D01*
X108157Y267836D01*
G37*
%LPD*%
%LPC*%
G36*
X184357Y267836D02*
X184357Y267836D01*
X181136Y269170D01*
X178670Y271636D01*
X177336Y274857D01*
X177336Y278343D01*
X178670Y281564D01*
X181136Y284030D01*
X184357Y285364D01*
X187843Y285364D01*
X191064Y284030D01*
X193530Y281564D01*
X194864Y278343D01*
X194864Y274857D01*
X193530Y271636D01*
X191064Y269170D01*
X187843Y267836D01*
X184357Y267836D01*
G37*
%LPD*%
%LPC*%
G36*
X158957Y267836D02*
X158957Y267836D01*
X155736Y269170D01*
X153270Y271636D01*
X151936Y274857D01*
X151936Y278343D01*
X153270Y281564D01*
X155736Y284030D01*
X158957Y285364D01*
X162443Y285364D01*
X165664Y284030D01*
X168130Y281564D01*
X169464Y278343D01*
X169464Y274857D01*
X168130Y271636D01*
X165664Y269170D01*
X162443Y267836D01*
X158957Y267836D01*
G37*
%LPD*%
%LPC*%
G36*
X133557Y267836D02*
X133557Y267836D01*
X130336Y269170D01*
X127870Y271636D01*
X126536Y274857D01*
X126536Y278343D01*
X127870Y281564D01*
X130336Y284030D01*
X133557Y285364D01*
X137043Y285364D01*
X140264Y284030D01*
X142730Y281564D01*
X144064Y278343D01*
X144064Y274857D01*
X142730Y271636D01*
X140264Y269170D01*
X137043Y267836D01*
X133557Y267836D01*
G37*
%LPD*%
%LPC*%
G36*
X514557Y267836D02*
X514557Y267836D01*
X511336Y269170D01*
X508870Y271636D01*
X507536Y274857D01*
X507536Y278343D01*
X508870Y281564D01*
X511336Y284030D01*
X514557Y285364D01*
X518043Y285364D01*
X521264Y284030D01*
X523730Y281564D01*
X525064Y278343D01*
X525064Y274857D01*
X523730Y271636D01*
X521264Y269170D01*
X518043Y267836D01*
X514557Y267836D01*
G37*
%LPD*%
%LPC*%
G36*
X489157Y267836D02*
X489157Y267836D01*
X485936Y269170D01*
X483470Y271636D01*
X482136Y274857D01*
X482136Y278343D01*
X483470Y281564D01*
X485936Y284030D01*
X489157Y285364D01*
X492643Y285364D01*
X495864Y284030D01*
X498330Y281564D01*
X499664Y278343D01*
X499664Y274857D01*
X498330Y271636D01*
X495864Y269170D01*
X492643Y267836D01*
X489157Y267836D01*
G37*
%LPD*%
%LPC*%
G36*
X463757Y267836D02*
X463757Y267836D01*
X460536Y269170D01*
X458070Y271636D01*
X456736Y274857D01*
X456736Y278343D01*
X458070Y281564D01*
X460536Y284030D01*
X463757Y285364D01*
X467243Y285364D01*
X470464Y284030D01*
X472930Y281564D01*
X474264Y278343D01*
X474264Y274857D01*
X472930Y271636D01*
X470464Y269170D01*
X467243Y267836D01*
X463757Y267836D01*
G37*
%LPD*%
%LPC*%
G36*
X438357Y267836D02*
X438357Y267836D01*
X435136Y269170D01*
X432670Y271636D01*
X431336Y274857D01*
X431336Y278343D01*
X432670Y281564D01*
X435136Y284030D01*
X438357Y285364D01*
X441843Y285364D01*
X445064Y284030D01*
X447530Y281564D01*
X448864Y278343D01*
X448864Y274857D01*
X447530Y271636D01*
X445064Y269170D01*
X441843Y267836D01*
X438357Y267836D01*
G37*
%LPD*%
%LPC*%
G36*
X412957Y267836D02*
X412957Y267836D01*
X409736Y269170D01*
X407270Y271636D01*
X405936Y274857D01*
X405936Y278343D01*
X407270Y281564D01*
X409736Y284030D01*
X412957Y285364D01*
X416443Y285364D01*
X419664Y284030D01*
X422130Y281564D01*
X423464Y278343D01*
X423464Y274857D01*
X422130Y271636D01*
X419664Y269170D01*
X416443Y267836D01*
X412957Y267836D01*
G37*
%LPD*%
%LPC*%
G36*
X387557Y267836D02*
X387557Y267836D01*
X384336Y269170D01*
X381870Y271636D01*
X380536Y274857D01*
X380536Y278343D01*
X381870Y281564D01*
X384336Y284030D01*
X387557Y285364D01*
X391043Y285364D01*
X394264Y284030D01*
X396730Y281564D01*
X398064Y278343D01*
X398064Y274857D01*
X396730Y271636D01*
X394264Y269170D01*
X391043Y267836D01*
X387557Y267836D01*
G37*
%LPD*%
%LPC*%
G36*
X362157Y267836D02*
X362157Y267836D01*
X358936Y269170D01*
X356470Y271636D01*
X355136Y274857D01*
X355136Y278343D01*
X356470Y281564D01*
X358936Y284030D01*
X362157Y285364D01*
X365643Y285364D01*
X368864Y284030D01*
X371330Y281564D01*
X372664Y278343D01*
X372664Y274857D01*
X371330Y271636D01*
X368864Y269170D01*
X365643Y267836D01*
X362157Y267836D01*
G37*
%LPD*%
%LPC*%
G36*
X336757Y267836D02*
X336757Y267836D01*
X333536Y269170D01*
X331070Y271636D01*
X329736Y274857D01*
X329736Y278343D01*
X331070Y281564D01*
X333536Y284030D01*
X336757Y285364D01*
X340243Y285364D01*
X343464Y284030D01*
X345930Y281564D01*
X347264Y278343D01*
X347264Y274857D01*
X345930Y271636D01*
X343464Y269170D01*
X340243Y267836D01*
X336757Y267836D01*
G37*
%LPD*%
%LPC*%
G36*
X311357Y267836D02*
X311357Y267836D01*
X308136Y269170D01*
X305670Y271636D01*
X304336Y274857D01*
X304336Y278343D01*
X305670Y281564D01*
X308136Y284030D01*
X311357Y285364D01*
X314843Y285364D01*
X318064Y284030D01*
X320530Y281564D01*
X321864Y278343D01*
X321864Y274857D01*
X320530Y271636D01*
X318064Y269170D01*
X314843Y267836D01*
X311357Y267836D01*
G37*
%LPD*%
%LPC*%
G36*
X285957Y267836D02*
X285957Y267836D01*
X282736Y269170D01*
X280270Y271636D01*
X278936Y274857D01*
X278936Y278343D01*
X280270Y281564D01*
X282736Y284030D01*
X285957Y285364D01*
X289443Y285364D01*
X292664Y284030D01*
X295130Y281564D01*
X296464Y278343D01*
X296464Y274857D01*
X295130Y271636D01*
X292664Y269170D01*
X289443Y267836D01*
X285957Y267836D01*
G37*
%LPD*%
%LPC*%
G36*
X260557Y267836D02*
X260557Y267836D01*
X257336Y269170D01*
X254870Y271636D01*
X253536Y274857D01*
X253536Y278343D01*
X254870Y281564D01*
X257336Y284030D01*
X260557Y285364D01*
X264043Y285364D01*
X267264Y284030D01*
X269730Y281564D01*
X271064Y278343D01*
X271064Y274857D01*
X269730Y271636D01*
X267264Y269170D01*
X264043Y267836D01*
X260557Y267836D01*
G37*
%LPD*%
%LPC*%
G36*
X235157Y267836D02*
X235157Y267836D01*
X231936Y269170D01*
X229470Y271636D01*
X228136Y274857D01*
X228136Y278343D01*
X229470Y281564D01*
X231936Y284030D01*
X235157Y285364D01*
X238643Y285364D01*
X241864Y284030D01*
X244330Y281564D01*
X245664Y278343D01*
X245664Y274857D01*
X244330Y271636D01*
X241864Y269170D01*
X238643Y267836D01*
X235157Y267836D01*
G37*
%LPD*%
%LPC*%
G36*
X99981Y607059D02*
X99981Y607059D01*
X96989Y608299D01*
X94699Y610589D01*
X93459Y613581D01*
X93459Y616819D01*
X94699Y619811D01*
X96989Y622101D01*
X99981Y623341D01*
X103219Y623341D01*
X106211Y622101D01*
X108501Y619811D01*
X109741Y616819D01*
X109741Y613581D01*
X108501Y610589D01*
X106211Y608299D01*
X103219Y607059D01*
X99981Y607059D01*
G37*
%LPD*%
%LPC*%
G36*
X652938Y311911D02*
X652938Y311911D01*
X650884Y312762D01*
X649312Y314334D01*
X648461Y316388D01*
X648461Y318612D01*
X649312Y320666D01*
X650884Y322238D01*
X652938Y323089D01*
X655162Y323089D01*
X657216Y322238D01*
X658788Y320666D01*
X659639Y318612D01*
X659639Y316388D01*
X658788Y314334D01*
X657216Y312762D01*
X655162Y311911D01*
X652938Y311911D01*
G37*
%LPD*%
%LPC*%
G36*
X970438Y680211D02*
X970438Y680211D01*
X968384Y681062D01*
X966812Y682634D01*
X965961Y684688D01*
X965961Y686912D01*
X966812Y688966D01*
X968384Y690538D01*
X970438Y691389D01*
X972662Y691389D01*
X974716Y690538D01*
X976288Y688966D01*
X977139Y686912D01*
X977139Y684688D01*
X976288Y682634D01*
X974716Y681062D01*
X972662Y680211D01*
X970438Y680211D01*
G37*
%LPD*%
%LPC*%
G36*
X456088Y38861D02*
X456088Y38861D01*
X454034Y39712D01*
X452462Y41284D01*
X451611Y43338D01*
X451611Y45562D01*
X452462Y47616D01*
X454034Y49188D01*
X456088Y50039D01*
X458312Y50039D01*
X460366Y49188D01*
X461938Y47616D01*
X462789Y45562D01*
X462789Y43338D01*
X461938Y41284D01*
X460366Y39712D01*
X458312Y38861D01*
X456088Y38861D01*
G37*
%LPD*%
%LPC*%
G36*
X678338Y248411D02*
X678338Y248411D01*
X676284Y249262D01*
X674712Y250834D01*
X673861Y252888D01*
X673861Y255112D01*
X674712Y257166D01*
X676284Y258738D01*
X678338Y259589D01*
X680562Y259589D01*
X682616Y258738D01*
X684188Y257166D01*
X685039Y255112D01*
X685039Y252888D01*
X684188Y250834D01*
X682616Y249262D01*
X680562Y248411D01*
X678338Y248411D01*
G37*
%LPD*%
%LPC*%
G36*
X506888Y38861D02*
X506888Y38861D01*
X504834Y39712D01*
X503262Y41284D01*
X502411Y43338D01*
X502411Y45562D01*
X503262Y47616D01*
X504834Y49188D01*
X506888Y50039D01*
X509112Y50039D01*
X511166Y49188D01*
X512738Y47616D01*
X513589Y45562D01*
X513589Y43338D01*
X512738Y41284D01*
X511166Y39712D01*
X509112Y38861D01*
X506888Y38861D01*
G37*
%LPD*%
%LPC*%
G36*
X671988Y718311D02*
X671988Y718311D01*
X669934Y719162D01*
X668362Y720734D01*
X667511Y722788D01*
X667511Y725012D01*
X668362Y727066D01*
X669934Y728638D01*
X671988Y729489D01*
X674212Y729489D01*
X676266Y728638D01*
X677838Y727066D01*
X678689Y725012D01*
X678689Y722788D01*
X677838Y720734D01*
X676266Y719162D01*
X674212Y718311D01*
X671988Y718311D01*
G37*
%LPD*%
%LPC*%
G36*
X75088Y699261D02*
X75088Y699261D01*
X73034Y700112D01*
X71462Y701684D01*
X70611Y703738D01*
X70611Y705962D01*
X71462Y708016D01*
X73034Y709588D01*
X75088Y710439D01*
X77312Y710439D01*
X79366Y709588D01*
X80938Y708016D01*
X81789Y705962D01*
X81789Y703738D01*
X80938Y701684D01*
X79366Y700112D01*
X77312Y699261D01*
X75088Y699261D01*
G37*
%LPD*%
%LPC*%
G36*
X119538Y115061D02*
X119538Y115061D01*
X117484Y115912D01*
X115912Y117484D01*
X115061Y119538D01*
X115061Y121762D01*
X115912Y123816D01*
X117484Y125388D01*
X119538Y126239D01*
X121762Y126239D01*
X123816Y125388D01*
X125388Y123816D01*
X126239Y121762D01*
X126239Y119538D01*
X125388Y117484D01*
X123816Y115912D01*
X121762Y115061D01*
X119538Y115061D01*
G37*
%LPD*%
%LPC*%
G36*
X252888Y115061D02*
X252888Y115061D01*
X250834Y115912D01*
X249262Y117484D01*
X248411Y119538D01*
X248411Y121762D01*
X249262Y123816D01*
X250834Y125388D01*
X252888Y126239D01*
X255112Y126239D01*
X257166Y125388D01*
X258738Y123816D01*
X259589Y121762D01*
X259589Y119538D01*
X258738Y117484D01*
X257166Y115912D01*
X255112Y115061D01*
X252888Y115061D01*
G37*
%LPD*%
%LPC*%
G36*
X621188Y121411D02*
X621188Y121411D01*
X619134Y122262D01*
X617562Y123834D01*
X616711Y125888D01*
X616711Y128112D01*
X617562Y130166D01*
X619134Y131738D01*
X621188Y132589D01*
X623412Y132589D01*
X625466Y131738D01*
X627038Y130166D01*
X627889Y128112D01*
X627889Y125888D01*
X627038Y123834D01*
X625466Y122262D01*
X623412Y121411D01*
X621188Y121411D01*
G37*
%LPD*%
%LPC*%
G36*
X221138Y153161D02*
X221138Y153161D01*
X219084Y154012D01*
X217512Y155584D01*
X216661Y157638D01*
X216661Y159862D01*
X217512Y161916D01*
X219084Y163488D01*
X221138Y164339D01*
X223362Y164339D01*
X225416Y163488D01*
X226988Y161916D01*
X227839Y159862D01*
X227839Y157638D01*
X226988Y155584D01*
X225416Y154012D01*
X223362Y153161D01*
X221138Y153161D01*
G37*
%LPD*%
%LPC*%
G36*
X367188Y680211D02*
X367188Y680211D01*
X365134Y681062D01*
X363562Y682634D01*
X362711Y684688D01*
X362711Y686912D01*
X363562Y688966D01*
X365134Y690538D01*
X367188Y691389D01*
X369412Y691389D01*
X371466Y690538D01*
X373038Y688966D01*
X373889Y686912D01*
X373889Y684688D01*
X373038Y682634D01*
X371466Y681062D01*
X369412Y680211D01*
X367188Y680211D01*
G37*
%LPD*%
%LPC*%
G36*
X887888Y146811D02*
X887888Y146811D01*
X885834Y147662D01*
X884262Y149234D01*
X883411Y151288D01*
X883411Y153512D01*
X884262Y155566D01*
X885834Y157138D01*
X887888Y157989D01*
X890112Y157989D01*
X892166Y157138D01*
X893738Y155566D01*
X894589Y153512D01*
X894589Y151288D01*
X893738Y149234D01*
X892166Y147662D01*
X890112Y146811D01*
X887888Y146811D01*
G37*
%LPD*%
%LPC*%
G36*
X621188Y146811D02*
X621188Y146811D01*
X619134Y147662D01*
X617562Y149234D01*
X616711Y151288D01*
X616711Y153512D01*
X617562Y155566D01*
X619134Y157138D01*
X621188Y157989D01*
X623412Y157989D01*
X625466Y157138D01*
X627038Y155566D01*
X627889Y153512D01*
X627889Y151288D01*
X627038Y149234D01*
X625466Y147662D01*
X623412Y146811D01*
X621188Y146811D01*
G37*
%LPD*%
%LPC*%
G36*
X665638Y19811D02*
X665638Y19811D01*
X663584Y20662D01*
X662012Y22234D01*
X661161Y24288D01*
X661161Y26512D01*
X662012Y28566D01*
X663584Y30138D01*
X665638Y30989D01*
X667862Y30989D01*
X669916Y30138D01*
X671488Y28566D01*
X672339Y26512D01*
X672339Y24288D01*
X671488Y22234D01*
X669916Y20662D01*
X667862Y19811D01*
X665638Y19811D01*
G37*
%LPD*%
%LPC*%
G36*
X652779Y701039D02*
X652779Y701039D01*
X652779Y707824D01*
X653945Y707446D01*
X655299Y706756D01*
X656528Y705863D01*
X657603Y704788D01*
X658496Y703559D01*
X659186Y702205D01*
X659564Y701039D01*
X652779Y701039D01*
G37*
%LPD*%
%LPC*%
G36*
X652779Y695961D02*
X652779Y695961D01*
X659564Y695961D01*
X659186Y694795D01*
X658496Y693441D01*
X657603Y692212D01*
X656528Y691137D01*
X655299Y690244D01*
X653945Y689554D01*
X652779Y689176D01*
X652779Y695961D01*
G37*
%LPD*%
%LPC*%
G36*
X640916Y701039D02*
X640916Y701039D01*
X641294Y702205D01*
X641984Y703559D01*
X642877Y704788D01*
X643952Y705863D01*
X645181Y706756D01*
X646535Y707446D01*
X647701Y707824D01*
X647701Y701039D01*
X640916Y701039D01*
G37*
%LPD*%
%LPC*%
G36*
X646535Y689554D02*
X646535Y689554D01*
X645181Y690244D01*
X643952Y691137D01*
X642877Y692212D01*
X641984Y693441D01*
X641294Y694795D01*
X640916Y695961D01*
X647701Y695961D01*
X647701Y689176D01*
X646535Y689554D01*
G37*
%LPD*%
%LPC*%
G36*
X239122Y304222D02*
X239122Y304222D01*
X239122Y310493D01*
X239456Y310427D01*
X241051Y309766D01*
X242487Y308807D01*
X243707Y307587D01*
X244666Y306151D01*
X245327Y304556D01*
X245393Y304222D01*
X239122Y304222D01*
G37*
%LPD*%
%LPC*%
G36*
X366122Y532822D02*
X366122Y532822D01*
X366122Y539093D01*
X366456Y539027D01*
X368051Y538366D01*
X369487Y537407D01*
X370707Y536187D01*
X371666Y534751D01*
X372327Y533156D01*
X372393Y532822D01*
X366122Y532822D01*
G37*
%LPD*%
%LPC*%
G36*
X239122Y299778D02*
X239122Y299778D01*
X245393Y299778D01*
X245327Y299444D01*
X244666Y297849D01*
X243707Y296413D01*
X242487Y295193D01*
X241051Y294234D01*
X239456Y293573D01*
X239122Y293507D01*
X239122Y299778D01*
G37*
%LPD*%
%LPC*%
G36*
X355407Y532822D02*
X355407Y532822D01*
X355473Y533156D01*
X356134Y534751D01*
X357093Y536187D01*
X358313Y537407D01*
X359749Y538366D01*
X361344Y539027D01*
X361678Y539093D01*
X361678Y532822D01*
X355407Y532822D01*
G37*
%LPD*%
%LPC*%
G36*
X228407Y304222D02*
X228407Y304222D01*
X228473Y304556D01*
X229134Y306151D01*
X230093Y307587D01*
X231313Y308807D01*
X232749Y309766D01*
X234344Y310427D01*
X234678Y310493D01*
X234678Y304222D01*
X228407Y304222D01*
G37*
%LPD*%
%LPC*%
G36*
X366122Y528378D02*
X366122Y528378D01*
X372393Y528378D01*
X372327Y528044D01*
X371666Y526449D01*
X370707Y525013D01*
X369487Y523793D01*
X368051Y522834D01*
X366456Y522173D01*
X366122Y522107D01*
X366122Y528378D01*
G37*
%LPD*%
%LPC*%
G36*
X234344Y293573D02*
X234344Y293573D01*
X232749Y294234D01*
X231313Y295193D01*
X230093Y296413D01*
X229134Y297849D01*
X228473Y299444D01*
X228407Y299778D01*
X234678Y299778D01*
X234678Y293507D01*
X234344Y293573D01*
G37*
%LPD*%
%LPC*%
G36*
X361344Y522173D02*
X361344Y522173D01*
X359749Y522834D01*
X358313Y523793D01*
X357093Y525013D01*
X356134Y526449D01*
X355473Y528044D01*
X355407Y528378D01*
X361678Y528378D01*
X361678Y522107D01*
X361344Y522173D01*
G37*
%LPD*%
%LPC*%
G36*
X650239Y698499D02*
X650239Y698499D01*
X650239Y698501D01*
X650241Y698501D01*
X650241Y698499D01*
X650239Y698499D01*
G37*
%LPD*%
D10*
X84500Y276600D03*
X84500Y302000D03*
X109900Y276600D03*
X109900Y302000D03*
X135300Y276600D03*
X135300Y302000D03*
X160700Y276600D03*
X160700Y302000D03*
X186100Y276600D03*
X186100Y302000D03*
X211500Y276600D03*
X211500Y302000D03*
X236900Y276600D03*
X236900Y302000D03*
X262300Y276600D03*
X262300Y302000D03*
X287700Y276600D03*
X287700Y302000D03*
X313100Y276600D03*
X313100Y302000D03*
X338500Y276600D03*
X338500Y302000D03*
X363900Y276600D03*
X363900Y302000D03*
X389300Y276600D03*
X389300Y302000D03*
X414700Y276600D03*
X414700Y302000D03*
X440100Y276600D03*
X440100Y302000D03*
X465500Y276600D03*
X465500Y302000D03*
X490900Y276600D03*
X490900Y302000D03*
X516300Y276600D03*
X516300Y302000D03*
X84500Y530600D03*
X84500Y556000D03*
X109900Y530600D03*
X109900Y556000D03*
X135300Y530600D03*
X135300Y556000D03*
X160700Y530600D03*
X160700Y556000D03*
X186100Y530600D03*
X186100Y556000D03*
X211500Y530600D03*
X211500Y556000D03*
X236900Y530600D03*
X236900Y556000D03*
X262300Y530600D03*
X262300Y556000D03*
X287700Y530600D03*
X287700Y556000D03*
X313100Y530600D03*
X313100Y556000D03*
X338500Y530600D03*
X338500Y556000D03*
X363900Y530600D03*
X363900Y556000D03*
X389300Y530600D03*
X389300Y556000D03*
X414700Y530600D03*
X414700Y556000D03*
X440100Y530600D03*
X440100Y556000D03*
X465500Y530600D03*
X465500Y556000D03*
X490900Y530600D03*
X490900Y556000D03*
X516300Y530600D03*
X516300Y556000D03*
D11*
X152400Y177800D03*
X177400Y177800D03*
X197400Y177800D03*
X222400Y177800D03*
D12*
X121700Y150700D03*
X253100Y150700D03*
D10*
X596900Y177800D03*
X596900Y152400D03*
X596900Y127000D03*
D13*
X101600Y680200D03*
X101600Y615200D03*
D14*
X457600Y63500D03*
X482600Y63500D03*
X507600Y63500D03*
D15*
X367300Y660000D03*
X367300Y610000D03*
X242300Y610000D03*
X242300Y660000D03*
D16*
X726440Y698500D03*
X701040Y698500D03*
X675640Y698500D03*
X650240Y698500D03*
D17*
X38100Y38100D03*
X38100Y723900D03*
X977900Y723900D03*
X977900Y38100D03*
D18*
X622300Y127000D03*
X222250Y158750D03*
X666750Y25400D03*
X673100Y723900D03*
X368300Y685800D03*
D19*
X119900Y680200D02*
X101600Y680200D01*
X119900Y680200D02*
X120650Y679450D01*
D18*
X120650Y679450D03*
X654050Y317500D03*
X679450Y254000D03*
X889000Y152400D03*
X622300Y152400D03*
D19*
X152400Y158750D02*
X152400Y177800D01*
D18*
X152400Y158750D03*
X120650Y120650D03*
X254000Y120650D03*
D19*
X76200Y38100D02*
X38100Y38100D01*
D18*
X76200Y38100D03*
X971550Y685800D03*
X76200Y704850D03*
X508000Y44450D03*
X457200Y44450D03*
X704850Y609600D03*
X781050Y584200D03*
X647700Y723900D03*
X247650Y717550D03*
M02*
