M48
;GenerationSoftware,Autodesk,EAGLE,9.6.2*%
;CreationDate,2025-05-01T18:17:30Z*%
FMAT,2
ICI,OFF
METRIC,TZ,000.000
T11C0.305
T10C0.800
T9C0.889
T8C0.920
T7C1.000
T6C1.016
T5C1.400
T4C2.000
T3C2.300
T2C2.500
T1C3.175
%
G90
M71
T1
X97790Y3810
X97790Y72390
X3810Y72390
X3810Y3810
T2
X43260Y13350
X53260Y13350
T3
X25310Y15070
X12170Y15070
T4
X90424Y69850
X46736Y46990
X90424Y46990
X46736Y69850
T5
X24230Y66000
X24230Y61000
X36730Y61000
X36730Y66000
T6
X65024Y69850
X67564Y69850
X70104Y69850
X72644Y69850
T7
X50760Y6350
X48260Y6350
X45760Y6350
T8
X22240Y17780
X19740Y17780
X17740Y17780
X15240Y17780
T9
X51630Y30200
X8450Y27660
X8450Y30200
X10990Y27660
X10990Y30200
X13530Y27660
X13530Y30200
X16070Y27660
X16070Y30200
X18610Y27660
X18610Y30200
X21150Y27660
X21150Y30200
X23690Y27660
X23690Y30200
X26230Y27660
X26230Y30200
X28770Y27660
X28770Y30200
X31310Y27660
X31310Y30200
X33850Y27660
X33850Y30200
X36390Y27660
X36390Y30200
X38930Y27660
X38930Y30200
X41470Y27660
X41470Y30200
X44010Y27660
X44010Y30200
X46550Y27660
X46550Y30200
X49090Y27660
X49090Y30200
X51630Y27660
X59690Y12700
X8450Y53060
X8450Y55600
X10990Y53060
X10990Y55600
X13530Y53060
X13530Y55600
X16070Y53060
X16070Y55600
X18610Y53060
X18610Y55600
X21150Y53060
X21150Y55600
X23690Y53060
X23690Y55600
X26230Y53060
X26230Y55600
X28770Y53060
X28770Y55600
X31310Y53060
X31310Y55600
X33850Y53060
X33850Y55600
X36390Y53060
X36390Y55600
X38930Y53060
X38930Y55600
X41470Y53060
X41470Y55600
X44010Y53060
X44010Y55600
X46550Y53060
X46550Y55600
X49090Y53060
X49090Y55600
X51630Y53060
X51630Y55600
X59690Y15240
X59690Y17780
T10
X10160Y68020
X10160Y61520
T11
X70485Y60960
X45720Y4445
X50800Y4445
X7620Y70485
X78105Y58420
X64770Y72390
X24765Y71755
X97155Y68580
X7620Y3810
X25400Y12065
X12065Y12065
X15240Y15875
X62230Y15240
X88900Y15240
X67945Y25400
X65405Y31750
X12065Y67945
X36830Y68580
X67310Y72390
X66675Y2540
X22225Y15875
X62230Y12700
M30